<svg width="48" height="48" viewBox="0 0 48 48" fill="none" xmlns="http://www.w3.org/2000/svg">
<rect x="1.5" y="1.5" width="45" height="45" rx="22.5" fill="#FFFDF4" stroke="#E8BF28" stroke-width="3"/>
<path d="M34 24.5C34 24.8978 33.8495 25.2794 33.5816 25.5607C33.3137 25.842 32.9503 26 32.5714 26H29.8381C29.2629 25.9982 28.6979 25.8408 28.1974 25.543C27.697 25.2453 27.278 24.8172 26.981 24.3L25.8143 22.266L24.1095 26.629L26.599 28.116C27.1113 28.4224 27.5371 28.8657 27.8334 29.4009C28.1296 29.936 28.2857 30.544 28.2857 31.163V34.5C28.2857 34.8978 28.1352 35.2794 27.8673 35.5607C27.5994 35.842 27.236 36 26.8571 36C26.4783 36 26.1149 35.842 25.847 35.5607C25.5791 35.2794 25.4286 34.8978 25.4286 34.5V31.163C25.4285 31.0749 25.4063 30.9883 25.3642 30.9121C25.322 30.8359 25.2615 30.7727 25.1886 30.729L21.301 28.406C20.6225 27.9724 20.1131 27.2995 19.8641 26.5075C19.6151 25.7156 19.6427 24.8565 19.9419 24.084L21.1429 21H19.4629C19.3744 21.0001 19.2877 21.0261 19.2125 21.075C19.1373 21.1239 19.0766 21.1939 19.0371 21.277L17.659 24.171C17.4896 24.5269 17.1924 24.7976 16.8328 24.9234C16.4733 25.0492 16.0809 25.02 15.7419 24.842C15.4029 24.664 15.1452 24.352 15.0253 23.9745C14.9055 23.597 14.9334 23.1849 15.1029 22.829L16.481 19.935C16.7563 19.3523 17.1816 18.8621 17.7086 18.5201C18.2356 18.1781 18.8433 17.998 19.4629 18H24.819C25.3942 18.0018 25.9593 18.1592 26.4597 18.457C26.9602 18.7547 27.3791 19.1828 27.6762 19.7L29.4286 22.758C29.4711 22.8321 29.5311 22.8933 29.6029 22.9357C29.6747 22.9782 29.7557 23.0003 29.8381 23H32.5714C32.9503 23 33.3137 23.158 33.5816 23.4393C33.8495 23.7206 34 24.1022 34 24.5ZM19.7686 28.85C19.5944 28.7768 19.4081 28.7404 19.2205 28.7428C19.0329 28.7452 18.8475 28.7864 18.6751 28.8641C18.5026 28.9417 18.3464 29.0542 18.2154 29.1953C18.0844 29.3363 17.9811 29.503 17.9114 29.686C17.8761 29.7787 17.8151 29.8581 17.7363 29.9141C17.6575 29.9701 17.5646 30 17.4695 30H15.4286C15.0497 30 14.6863 30.158 14.4184 30.4393C14.1505 30.7206 14 31.1022 14 31.5C14 31.8978 14.1505 32.2794 14.4184 32.5607C14.6863 32.842 15.0497 33 15.4286 33H17.4695C18.1362 33.0023 18.7881 32.7936 19.3402 32.4012C19.8923 32.0087 20.3191 31.4508 20.5648 30.8C20.6345 30.6171 20.6691 30.4215 20.6668 30.2245C20.6646 30.0275 20.6253 29.8329 20.5514 29.6518C20.4774 29.4707 20.3703 29.3067 20.2359 29.1691C20.1016 29.0316 19.9428 28.9231 19.7686 28.85ZM25.9048 17C26.3757 17 26.836 16.8534 27.2275 16.5787C27.6191 16.304 27.9243 15.9135 28.1045 15.4567C28.2847 14.9999 28.3318 14.4972 28.24 14.0123C28.1481 13.5273 27.9213 13.0819 27.5883 12.7322C27.2554 12.3826 26.8311 12.1445 26.3693 12.048C25.9074 11.9516 25.4287 12.0011 24.9936 12.1903C24.5585 12.3795 24.1867 12.7 23.9251 13.1111C23.6634 13.5222 23.5238 14.0055 23.5238 14.5C23.5238 15.163 23.7747 15.7989 24.2212 16.2678C24.6677 16.7366 25.2733 17 25.9048 17Z" fill="#E8BF28"/>
</svg>
