<svg width="178" height="177" viewBox="0 0 178 177" fill="none" xmlns="http://www.w3.org/2000/svg">
<g clip-path="url(#clip0_256_721)">
<path d="M162.62 134.107V118C162.62 112.132 160.289 106.505 156.14 102.355C151.991 98.2061 146.363 95.875 140.495 95.875H96.2452V73.0125C105.199 71.1849 113.155 66.0978 118.571 58.7376C123.987 51.3773 126.477 42.2682 125.558 33.1763C124.64 24.0844 120.378 15.6574 113.6 9.52901C106.821 3.40066 98.0084 0.00756836 88.8702 0.00756836C79.732 0.00756836 70.9193 3.40066 64.1407 9.52901C57.362 15.6574 53.1004 24.0844 52.1819 33.1763C51.2634 42.2682 53.7536 51.3773 59.1696 58.7376C64.5856 66.0978 72.5416 71.1849 81.4952 73.0125V95.875H37.2452C31.3773 95.875 25.7497 98.2061 21.6004 102.355C17.4512 106.505 15.1202 112.132 15.1202 118V134.107C10.1995 135.847 6.0522 139.27 3.41138 143.772C0.770561 148.274 -0.193781 153.564 0.688795 158.708C1.57137 163.852 4.24404 168.519 8.23442 171.883C12.2248 175.247 17.276 177.092 22.4952 177.092C27.7144 177.092 32.7655 175.247 36.7559 171.883C40.7463 168.519 43.419 163.852 44.3015 158.708C45.1841 153.564 44.2198 148.274 41.5789 143.772C38.9381 139.27 34.7909 135.847 29.8702 134.107V118C29.8702 116.044 30.6472 114.168 32.0303 112.785C33.4133 111.402 35.2892 110.625 37.2452 110.625H81.4952V134.107C76.5745 135.847 72.4272 139.27 69.7864 143.772C67.1456 148.274 66.1812 153.564 67.0638 158.708C67.9464 163.852 70.619 168.519 74.6094 171.883C78.5998 175.247 83.651 177.092 88.8702 177.092C94.0894 177.092 99.1405 175.247 103.131 171.883C107.121 168.519 109.794 163.852 110.677 158.708C111.559 153.564 110.595 148.274 107.954 143.772C105.313 139.27 101.166 135.847 96.2452 134.107V110.625H140.495C142.451 110.625 144.327 111.402 145.71 112.785C147.093 114.168 147.87 116.044 147.87 118V134.107C142.949 135.847 138.802 139.27 136.161 143.772C133.521 148.274 132.556 153.564 133.439 158.708C134.321 163.852 136.994 168.519 140.984 171.883C144.975 175.247 150.026 177.092 155.245 177.092C160.464 177.092 165.516 175.247 169.506 171.883C173.496 168.519 176.169 163.852 177.052 158.708C177.934 153.564 176.97 148.274 174.329 143.772C171.688 139.27 167.541 135.847 162.62 134.107Z" fill="#36A1BD"/>
<circle cx="89.3701" cy="36" r="27" fill="#EEFBFF"/>
<circle cx="155.37" cy="155" r="13" fill="#EEFBFF"/>
<circle cx="89.3701" cy="155" r="13" fill="#EEFBFF"/>
<circle cx="21.3701" cy="155" r="13" fill="#EEFBFF"/>
</g>
<defs>
<clipPath id="clip0_256_721">
<rect width="177" height="177" fill="white" transform="translate(0.370117)"/>
</clipPath>
</defs>
</svg>
