<svg width="276" height="42" viewBox="0 0 276 42" fill="none" xmlns="http://www.w3.org/2000/svg">
<g filter="url(#filter0_d_279_397)">
<path d="M4.822 27V3.2H16.45C19.442 3.2 21.686 3.76667 23.182 4.9C24.7007 6.03333 25.46 7.52933 25.46 9.388C25.46 10.6347 25.154 11.7227 24.542 12.652C23.93 13.5587 23.0913 14.2613 22.026 14.76C20.9607 15.2587 19.7367 15.508 18.354 15.508L19 14.114C20.496 14.114 21.822 14.3633 22.978 14.862C24.134 15.338 25.0293 16.052 25.664 17.004C26.3213 17.956 26.65 19.1233 26.65 20.506C26.65 22.546 25.8453 24.144 24.236 25.3C22.6267 26.4333 20.258 27 17.13 27H4.822ZM10.296 22.852H16.722C18.15 22.852 19.2267 22.6253 19.952 22.172C20.7 21.696 21.074 20.948 21.074 19.928C21.074 18.9307 20.7 18.194 19.952 17.718C19.2267 17.2193 18.15 16.97 16.722 16.97H9.888V12.958H15.77C17.1073 12.958 18.1273 12.7313 18.83 12.278C19.5553 11.802 19.918 11.088 19.918 10.136C19.918 9.20667 19.5553 8.51533 18.83 8.062C18.1273 7.586 17.1073 7.348 15.77 7.348H10.296V22.852ZM38.164 27.272C36.6454 27.272 35.2854 26.9773 34.084 26.388C32.9054 25.7987 31.9874 24.9033 31.33 23.702C30.6727 22.478 30.344 20.9253 30.344 19.044V8.708H35.648V18.262C35.648 19.7807 35.9654 20.9027 36.6 21.628C37.2574 22.3307 38.1754 22.682 39.354 22.682C40.17 22.682 40.8954 22.512 41.53 22.172C42.1647 21.8093 42.6634 21.2653 43.026 20.54C43.3887 19.792 43.57 18.8627 43.57 17.752V8.708H48.874V27H43.842V21.968L44.76 23.43C44.148 24.6993 43.2414 25.6627 42.04 26.32C40.8614 26.9547 39.5694 27.272 38.164 27.272ZM59.9418 27.272C58.3778 27.272 56.8705 27.0907 55.4198 26.728C53.9918 26.3427 52.8585 25.8667 52.0198 25.3L53.7878 21.492C54.6265 22.0133 55.6125 22.444 56.7458 22.784C57.9018 23.1013 59.0352 23.26 60.1458 23.26C61.3698 23.26 62.2312 23.1127 62.7298 22.818C63.2512 22.5233 63.5118 22.1153 63.5118 21.594C63.5118 21.1633 63.3078 20.846 62.8998 20.642C62.5145 20.4153 61.9932 20.2453 61.3358 20.132C60.6785 20.0187 59.9532 19.9053 59.1598 19.792C58.3892 19.6787 57.6072 19.5313 56.8138 19.35C56.0205 19.146 55.2952 18.8513 54.6378 18.466C53.9805 18.0807 53.4478 17.5593 53.0398 16.902C52.6545 16.2447 52.4618 15.3947 52.4618 14.352C52.4618 13.196 52.7905 12.176 53.4478 11.292C54.1278 10.408 55.1025 9.71667 56.3718 9.218C57.6412 8.69667 59.1598 8.436 60.9278 8.436C62.1745 8.436 63.4438 8.572 64.7358 8.844C66.0278 9.116 67.1045 9.51267 67.9658 10.034L66.1978 13.808C65.3138 13.2867 64.4185 12.9353 63.5118 12.754C62.6278 12.55 61.7665 12.448 60.9278 12.448C59.7492 12.448 58.8878 12.6067 58.3438 12.924C57.7998 13.2413 57.5278 13.6493 57.5278 14.148C57.5278 14.6013 57.7205 14.9413 58.1058 15.168C58.5138 15.3947 59.0465 15.576 59.7038 15.712C60.3612 15.848 61.0752 15.9727 61.8458 16.086C62.6392 16.1767 63.4325 16.324 64.2258 16.528C65.0192 16.732 65.7332 17.0267 66.3678 17.412C67.0252 17.7747 67.5578 18.2847 67.9658 18.942C68.3738 19.5767 68.5778 20.4153 68.5778 21.458C68.5778 22.5913 68.2378 23.6 67.5578 24.484C66.8778 25.3453 65.8918 26.0253 64.5998 26.524C63.3305 27.0227 61.7778 27.272 59.9418 27.272ZM71.8503 27V8.708H77.1543V27H71.8503ZM74.5023 6.158C73.5277 6.158 72.7343 5.87467 72.1223 5.308C71.5103 4.74133 71.2043 4.03867 71.2043 3.2C71.2043 2.36133 71.5103 1.65867 72.1223 1.092C72.7343 0.525332 73.5277 0.241998 74.5023 0.241998C75.477 0.241998 76.2703 0.513999 76.8823 1.058C77.4943 1.57933 77.8003 2.25933 77.8003 3.098C77.8003 3.982 77.4943 4.71867 76.8823 5.308C76.293 5.87467 75.4997 6.158 74.5023 6.158ZM93.1949 8.436C94.6456 8.436 95.9376 8.73067 97.0709 9.32C98.2269 9.88667 99.1336 10.7707 99.7909 11.972C100.448 13.1507 100.777 14.6693 100.777 16.528V27H95.4729V17.344C95.4729 15.8707 95.1442 14.7827 94.4869 14.08C93.8522 13.3773 92.9456 13.026 91.7669 13.026C90.9282 13.026 90.1689 13.2073 89.4889 13.57C88.8316 13.91 88.3102 14.4427 87.9249 15.168C87.5622 15.8933 87.3809 16.8227 87.3809 17.956V27H82.0769V8.708H87.1429V13.774L86.1909 12.244C86.8482 11.02 87.7889 10.0793 89.0129 9.422C90.2369 8.76467 91.6309 8.436 93.1949 8.436ZM114.796 27.272C112.71 27.272 110.874 26.864 109.288 26.048C107.724 25.232 106.511 24.1213 105.65 22.716C104.788 21.288 104.358 19.6673 104.358 17.854C104.358 16.018 104.777 14.3973 105.616 12.992C106.477 11.564 107.644 10.4533 109.118 9.66C110.591 8.844 112.257 8.436 114.116 8.436C115.906 8.436 117.516 8.82133 118.944 9.592C120.394 10.34 121.539 11.428 122.378 12.856C123.216 14.2613 123.636 15.95 123.636 17.922C123.636 18.126 123.624 18.364 123.602 18.636C123.579 18.8853 123.556 19.1233 123.534 19.35H108.676V16.256H120.746L118.706 17.174C118.706 16.222 118.513 15.3947 118.128 14.692C117.742 13.9893 117.21 13.4453 116.53 13.06C115.85 12.652 115.056 12.448 114.15 12.448C113.243 12.448 112.438 12.652 111.736 13.06C111.056 13.4453 110.523 14.0007 110.138 14.726C109.752 15.4287 109.56 16.2673 109.56 17.242V18.058C109.56 19.0553 109.775 19.9393 110.206 20.71C110.659 21.458 111.282 22.036 112.076 22.444C112.892 22.8293 113.844 23.022 114.932 23.022C115.906 23.022 116.756 22.8747 117.482 22.58C118.23 22.2853 118.91 21.8433 119.522 21.254L122.344 24.314C121.505 25.266 120.451 26.0027 119.182 26.524C117.912 27.0227 116.45 27.272 114.796 27.272ZM133.321 27.272C131.757 27.272 130.249 27.0907 128.799 26.728C127.371 26.3427 126.237 25.8667 125.399 25.3L127.167 21.492C128.005 22.0133 128.991 22.444 130.125 22.784C131.281 23.1013 132.414 23.26 133.525 23.26C134.749 23.26 135.61 23.1127 136.109 22.818C136.63 22.5233 136.891 22.1153 136.891 21.594C136.891 21.1633 136.687 20.846 136.279 20.642C135.893 20.4153 135.372 20.2453 134.715 20.132C134.057 20.0187 133.332 19.9053 132.539 19.792C131.768 19.6787 130.986 19.5313 130.193 19.35C129.399 19.146 128.674 18.8513 128.017 18.466C127.359 18.0807 126.827 17.5593 126.419 16.902C126.033 16.2447 125.841 15.3947 125.841 14.352C125.841 13.196 126.169 12.176 126.827 11.292C127.507 10.408 128.481 9.71667 129.751 9.218C131.02 8.69667 132.539 8.436 134.307 8.436C135.553 8.436 136.823 8.572 138.115 8.844C139.407 9.116 140.483 9.51267 141.345 10.034L139.577 13.808C138.693 13.2867 137.797 12.9353 136.891 12.754C136.007 12.55 135.145 12.448 134.307 12.448C133.128 12.448 132.267 12.6067 131.723 12.924C131.179 13.2413 130.907 13.6493 130.907 14.148C130.907 14.6013 131.099 14.9413 131.485 15.168C131.893 15.3947 132.425 15.576 133.083 15.712C133.74 15.848 134.454 15.9727 135.225 16.086C136.018 16.1767 136.811 16.324 137.605 16.528C138.398 16.732 139.112 17.0267 139.747 17.412C140.404 17.7747 140.937 18.2847 141.345 18.942C141.753 19.5767 141.957 20.4153 141.957 21.458C141.957 22.5913 141.617 23.6 140.937 24.484C140.257 25.3453 139.271 26.0253 137.979 26.524C136.709 27.0227 135.157 27.272 133.321 27.272ZM153.423 27.408C151.519 27.408 149.695 27.1587 147.949 26.66C146.204 26.1387 144.799 25.47 143.733 24.654L145.603 20.506C146.623 21.2313 147.825 21.832 149.207 22.308C150.613 22.7613 152.029 22.988 153.457 22.988C154.545 22.988 155.418 22.886 156.075 22.682C156.755 22.4553 157.254 22.1493 157.571 21.764C157.889 21.3787 158.047 20.9367 158.047 20.438C158.047 19.8033 157.798 19.3047 157.299 18.942C156.801 18.5567 156.143 18.2507 155.327 18.024C154.511 17.7747 153.605 17.548 152.607 17.344C151.633 17.1173 150.647 16.8453 149.649 16.528C148.675 16.2107 147.779 15.8027 146.963 15.304C146.147 14.8053 145.479 14.148 144.957 13.332C144.459 12.516 144.209 11.4733 144.209 10.204C144.209 8.844 144.572 7.60867 145.297 6.498C146.045 5.36466 147.156 4.46933 148.629 3.812C150.125 3.132 151.995 2.792 154.239 2.792C155.735 2.792 157.209 2.97333 158.659 3.336C160.11 3.676 161.391 4.19733 162.501 4.9L160.801 9.082C159.691 8.44733 158.58 7.98267 157.469 7.688C156.359 7.37067 155.271 7.212 154.205 7.212C153.14 7.212 152.267 7.33667 151.587 7.586C150.907 7.83533 150.42 8.164 150.125 8.572C149.831 8.95733 149.683 9.41067 149.683 9.932C149.683 10.544 149.933 11.0427 150.431 11.428C150.93 11.7907 151.587 12.0853 152.403 12.312C153.219 12.5387 154.115 12.7653 155.089 12.992C156.087 13.2187 157.073 13.4793 158.047 13.774C159.045 14.0687 159.951 14.4653 160.767 14.964C161.583 15.4627 162.241 16.12 162.739 16.936C163.261 17.752 163.521 18.7833 163.521 20.03C163.521 21.3673 163.147 22.5913 162.399 23.702C161.651 24.8127 160.529 25.708 159.033 26.388C157.56 27.068 155.69 27.408 153.423 27.408ZM168.891 33.868C167.939 33.868 166.998 33.7207 166.069 33.426C165.14 33.1313 164.38 32.7233 163.791 32.202L165.729 28.428C166.137 28.7907 166.602 29.074 167.123 29.278C167.667 29.482 168.2 29.584 168.721 29.584C169.469 29.584 170.058 29.4027 170.489 29.04C170.942 28.7 171.35 28.122 171.713 27.306L172.665 25.062L173.073 24.484L179.635 8.708H184.735L176.473 28.122C175.884 29.5953 175.204 30.7513 174.433 31.59C173.685 32.4287 172.846 33.018 171.917 33.358C171.01 33.698 170.002 33.868 168.891 33.868ZM172.019 27.714L163.859 8.708H169.333L175.657 24.008L172.019 27.714ZM192.788 27.272C191.224 27.272 189.716 27.0907 188.266 26.728C186.838 26.3427 185.704 25.8667 184.866 25.3L186.634 21.492C187.472 22.0133 188.458 22.444 189.592 22.784C190.748 23.1013 191.881 23.26 192.992 23.26C194.216 23.26 195.077 23.1127 195.576 22.818C196.097 22.5233 196.358 22.1153 196.358 21.594C196.358 21.1633 196.154 20.846 195.746 20.642C195.36 20.4153 194.839 20.2453 194.182 20.132C193.524 20.0187 192.799 19.9053 192.006 19.792C191.235 19.6787 190.453 19.5313 189.66 19.35C188.866 19.146 188.141 18.8513 187.484 18.466C186.826 18.0807 186.294 17.5593 185.886 16.902C185.5 16.2447 185.308 15.3947 185.308 14.352C185.308 13.196 185.636 12.176 186.294 11.292C186.974 10.408 187.948 9.71667 189.218 9.218C190.487 8.69667 192.006 8.436 193.774 8.436C195.02 8.436 196.29 8.572 197.582 8.844C198.874 9.116 199.95 9.51267 200.812 10.034L199.044 13.808C198.16 13.2867 197.264 12.9353 196.358 12.754C195.474 12.55 194.612 12.448 193.774 12.448C192.595 12.448 191.734 12.6067 191.19 12.924C190.646 13.2413 190.374 13.6493 190.374 14.148C190.374 14.6013 190.566 14.9413 190.952 15.168C191.36 15.3947 191.892 15.576 192.55 15.712C193.207 15.848 193.921 15.9727 194.692 16.086C195.485 16.1767 196.278 16.324 197.072 16.528C197.865 16.732 198.579 17.0267 199.214 17.412C199.871 17.7747 200.404 18.2847 200.812 18.942C201.22 19.5767 201.424 20.4153 201.424 21.458C201.424 22.5913 201.084 23.6 200.404 24.484C199.724 25.3453 198.738 26.0253 197.446 26.524C196.176 27.0227 194.624 27.272 192.788 27.272ZM212.176 27.272C210.023 27.272 208.345 26.728 207.144 25.64C205.943 24.5293 205.342 22.886 205.342 20.71V4.662H210.646V20.642C210.646 21.4127 210.85 22.0133 211.258 22.444C211.666 22.852 212.221 23.056 212.924 23.056C213.763 23.056 214.477 22.8293 215.066 22.376L216.494 26.116C215.95 26.5013 215.293 26.796 214.522 27C213.774 27.1813 212.992 27.272 212.176 27.272ZM202.52 13.196V9.116H215.202V13.196H202.52ZM227.985 27.272C225.9 27.272 224.064 26.864 222.477 26.048C220.913 25.232 219.7 24.1213 218.839 22.716C217.978 21.288 217.547 19.6673 217.547 17.854C217.547 16.018 217.966 14.3973 218.805 12.992C219.666 11.564 220.834 10.4533 222.307 9.66C223.78 8.844 225.446 8.436 227.305 8.436C229.096 8.436 230.705 8.82133 232.133 9.592C233.584 10.34 234.728 11.428 235.567 12.856C236.406 14.2613 236.825 15.95 236.825 17.922C236.825 18.126 236.814 18.364 236.791 18.636C236.768 18.8853 236.746 19.1233 236.723 19.35H221.865V16.256H233.935L231.895 17.174C231.895 16.222 231.702 15.3947 231.317 14.692C230.932 13.9893 230.399 13.4453 229.719 13.06C229.039 12.652 228.246 12.448 227.339 12.448C226.432 12.448 225.628 12.652 224.925 13.06C224.245 13.4453 223.712 14.0007 223.327 14.726C222.942 15.4287 222.749 16.2673 222.749 17.242V18.058C222.749 19.0553 222.964 19.9393 223.395 20.71C223.848 21.458 224.472 22.036 225.265 22.444C226.081 22.8293 227.033 23.022 228.121 23.022C229.096 23.022 229.946 22.8747 230.671 22.58C231.419 22.2853 232.099 21.8433 232.711 21.254L235.533 24.314C234.694 25.266 233.64 26.0027 232.371 26.524C231.102 27.0227 229.64 27.272 227.985 27.272ZM263.782 8.436C265.233 8.436 266.514 8.73067 267.624 9.32C268.758 9.88667 269.642 10.7707 270.276 11.972C270.934 13.1507 271.262 14.6693 271.262 16.528V27H265.958V17.344C265.958 15.8707 265.652 14.7827 265.04 14.08C264.428 13.3773 263.567 13.026 262.456 13.026C261.686 13.026 260.994 13.2073 260.382 13.57C259.77 13.91 259.294 14.4313 258.954 15.134C258.614 15.8367 258.444 16.732 258.444 17.82V27H253.14V17.344C253.14 15.8707 252.834 14.7827 252.222 14.08C251.633 13.3773 250.783 13.026 249.672 13.026C248.902 13.026 248.21 13.2073 247.598 13.57C246.986 13.91 246.51 14.4313 246.17 15.134C245.83 15.8367 245.66 16.732 245.66 17.82V27H240.356V8.708H245.422V13.706L244.47 12.244C245.105 10.9973 246 10.0567 247.156 9.422C248.335 8.76467 249.672 8.436 251.168 8.436C252.846 8.436 254.308 8.86667 255.554 9.728C256.824 10.5667 257.662 11.8587 258.07 13.604L256.2 13.094C256.812 11.666 257.787 10.5327 259.124 9.694C260.484 8.85533 262.037 8.436 263.782 8.436Z" fill="white"/>
</g>
<defs>
<filter id="filter0_d_279_397" x="0.822266" y="0.241943" width="274.44" height="41.626" filterUnits="userSpaceOnUse" color-interpolation-filters="sRGB">
<feFlood flood-opacity="0" result="BackgroundImageFix"/>
<feColorMatrix in="SourceAlpha" type="matrix" values="0 0 0 0 0 0 0 0 0 0 0 0 0 0 0 0 0 0 127 0" result="hardAlpha"/>
<feOffset dy="4"/>
<feGaussianBlur stdDeviation="2"/>
<feComposite in2="hardAlpha" operator="out"/>
<feColorMatrix type="matrix" values="0 0 0 0 0 0 0 0 0 0 0 0 0 0 0 0 0 0 0.25 0"/>
<feBlend mode="normal" in2="BackgroundImageFix" result="effect1_dropShadow_279_397"/>
<feBlend mode="normal" in="SourceGraphic" in2="effect1_dropShadow_279_397" result="shape"/>
</filter>
</defs>
</svg>
