<svg width="30" height="25" viewBox="0 0 30 25" fill="none" xmlns="http://www.w3.org/2000/svg">
<path d="M26.5312 0.46875H3.46875C2.78913 0.46875 2.13735 0.699218 1.65679 1.10945C1.17623 1.51969 0.90625 2.07609 0.90625 2.65625V22.3438C0.90625 22.9239 1.17623 23.4803 1.65679 23.8905C2.13735 24.3008 2.78913 24.5312 3.46875 24.5312H26.5312C27.2109 24.5312 27.8626 24.3008 28.3432 23.8905C28.8238 23.4803 29.0938 22.9239 29.0938 22.3438V2.65625C29.0938 2.07609 28.8238 1.51969 28.3432 1.10945C27.8626 0.699218 27.2109 0.46875 26.5312 0.46875ZM26.5312 11.4062H16.2812V2.65625H26.5312V11.4062ZM13.7188 2.65625V11.4062H3.46875V2.65625H13.7188ZM3.46875 13.5938H13.7188V22.3438H3.46875V13.5938ZM26.5312 22.3438H16.2812V13.5938H26.5312V22.3438Z" fill="#006D86"/>
</svg>
