<svg width="28" height="28" viewBox="0 0 28 28" fill="none" xmlns="http://www.w3.org/2000/svg">
<path d="M24.8547 22.8906C23.2484 20.1136 20.773 18.1223 17.8843 17.1784C19.3132 16.3277 20.4234 15.0315 21.0443 13.4889C21.6653 11.9462 21.7627 10.2423 21.3215 8.63895C20.8804 7.03557 19.9252 5.62132 18.6025 4.61338C17.2798 3.60545 15.6628 3.05957 13.9998 3.05957C12.3369 3.05957 10.7199 3.60545 9.39721 4.61338C8.07453 5.62132 7.11927 7.03557 6.67814 8.63895C6.23701 10.2423 6.3344 11.9462 6.95536 13.4889C7.57632 15.0315 8.6865 16.3277 10.1154 17.1784C7.22664 18.1213 4.75129 20.1125 3.145 22.8906C3.08609 22.9866 3.04702 23.0935 3.03009 23.2049C3.01316 23.3163 3.01871 23.4299 3.04641 23.5391C3.07412 23.6484 3.12341 23.7509 3.1914 23.8408C3.25938 23.9306 3.34467 24.0059 3.44224 24.0623C3.5398 24.1187 3.64767 24.1549 3.75947 24.1689C3.87127 24.1829 3.98474 24.1744 4.09319 24.1438C4.20163 24.1132 4.30286 24.0612 4.39089 23.9909C4.47892 23.9206 4.55197 23.8333 4.60574 23.7343C6.59277 20.3003 10.1049 18.2499 13.9998 18.2499C17.8948 18.2499 21.4069 20.3003 23.3939 23.7343C23.4477 23.8333 23.5208 23.9206 23.6088 23.9909C23.6968 24.0612 23.7981 24.1132 23.9065 24.1438C24.0149 24.1744 24.1284 24.1829 24.2402 24.1689C24.352 24.1549 24.4599 24.1187 24.5574 24.0623C24.655 24.0059 24.7403 23.9306 24.8083 23.8408C24.8763 23.7509 24.9256 23.6484 24.9533 23.5391C24.981 23.4299 24.9865 23.3163 24.9696 23.2049C24.9527 23.0935 24.9136 22.9866 24.8547 22.8906ZM8.09359 10.6562C8.09359 9.48804 8.43999 8.34613 9.08898 7.37485C9.73796 6.40358 10.6604 5.64656 11.7396 5.19953C12.8188 4.7525 14.0064 4.63553 15.1521 4.86343C16.2978 5.09132 17.3502 5.65384 18.1762 6.47984C19.0022 7.30584 19.5647 8.35824 19.7926 9.50394C20.0205 10.6496 19.9035 11.8372 19.4565 12.9164C19.0095 13.9956 18.2525 14.9181 17.2812 15.5671C16.3099 16.216 15.168 16.5624 13.9998 16.5624C12.4339 16.5608 10.9326 15.938 9.82534 14.8307C8.71807 13.7234 8.09527 12.2221 8.09359 10.6562Z" fill="#006D86"/>
</svg>
