<svg width="32" height="33" viewBox="0 0 32 33" fill="none" xmlns="http://www.w3.org/2000/svg">
<path d="M27.96 8.80002L16.96 2.78127C16.6661 2.61888 16.3358 2.53369 16 2.53369C15.6642 2.53369 15.3339 2.61888 15.04 2.78127L4.04 8.80252C3.72586 8.9744 3.46363 9.22747 3.28069 9.5353C3.09775 9.84314 3.00081 10.1944 3 10.5525V22.5075C3.00081 22.8656 3.09775 23.2169 3.28069 23.5247C3.46363 23.8326 3.72586 24.0856 4.04 24.2575L15.04 30.2788C15.3339 30.4412 15.6642 30.5264 16 30.5264C16.3358 30.5264 16.6661 30.4412 16.96 30.2788L27.96 24.2575C28.2741 24.0856 28.5364 23.8326 28.7193 23.5247C28.9023 23.2169 28.9992 22.8656 29 22.5075V10.5538C28.9999 10.195 28.9032 9.84297 28.7203 9.53442C28.5373 9.22587 28.2747 8.97221 27.96 8.80002ZM16 4.53127L26.0425 10.0313L22.3213 12.0688L12.2775 6.56877L16 4.53127ZM16 15.5313L5.9575 10.0313L10.195 7.71127L20.2375 13.2113L16 15.5313ZM5 11.7813L15 17.2538V27.9775L5 22.5088V11.7813ZM27 22.5038L17 27.9775V17.2588L21 15.07V19.5313C21 19.7965 21.1054 20.0508 21.2929 20.2384C21.4804 20.4259 21.7348 20.5313 22 20.5313C22.2652 20.5313 22.5196 20.4259 22.7071 20.2384C22.8946 20.0508 23 19.7965 23 19.5313V13.975L27 11.7813V22.5025V22.5038Z" fill="#006D86"/>
</svg>
