<svg width="32" height="33" viewBox="0 0 32 33" fill="none" xmlns="http://www.w3.org/2000/svg">
<path d="M14.6558 20.2714C15.9961 19.3791 17.0136 18.0792 17.558 16.5639C18.1023 15.0486 18.1445 13.3984 17.6785 11.8572C17.2124 10.3161 16.2627 8.96583 14.9699 8.00615C13.677 7.04647 12.1097 6.52832 10.4996 6.52832C8.88948 6.52832 7.32212 7.04647 6.02929 8.00615C4.73645 8.96583 3.78677 10.3161 3.32069 11.8572C2.8546 13.3984 2.89685 15.0486 3.4412 16.5639C3.98554 18.0792 5.00307 19.3791 6.34332 20.2714C3.91894 21.1649 1.84846 22.8184 0.440824 24.9851C0.366843 25.0951 0.315457 25.2186 0.28965 25.3486C0.263844 25.4786 0.264133 25.6124 0.2905 25.7423C0.316868 25.8722 0.368788 25.9955 0.443242 26.1052C0.517696 26.2148 0.6132 26.3085 0.724202 26.3809C0.835204 26.4533 0.959489 26.5029 1.08983 26.5269C1.22018 26.5508 1.35398 26.5486 1.48347 26.5204C1.61295 26.4922 1.73554 26.4385 1.8441 26.3625C1.95265 26.2865 2.04502 26.1896 2.11582 26.0776C3.02381 24.6811 4.26627 23.5335 5.73037 22.7391C7.19447 21.9447 8.83383 21.5286 10.4996 21.5286C12.1653 21.5286 13.8047 21.9447 15.2688 22.7391C16.7329 23.5335 17.9753 24.6811 18.8833 26.0776C19.03 26.2956 19.2566 26.4471 19.514 26.4994C19.7715 26.5517 20.0392 26.5005 20.2593 26.357C20.4794 26.2134 20.6341 25.9891 20.6901 25.7323C20.746 25.4756 20.6987 25.2072 20.5583 24.9851C19.1507 22.8184 17.0802 21.1649 14.6558 20.2714ZM4.99957 14.0314C4.99957 12.9436 5.32214 11.8802 5.92649 10.9757C6.53084 10.0713 7.38982 9.36631 8.39481 8.95003C9.39981 8.53374 10.5057 8.42483 11.5726 8.63704C12.6395 8.84926 13.6195 9.37309 14.3887 10.1423C15.1579 10.9115 15.6817 11.8915 15.8939 12.9584C16.1061 14.0253 15.9972 15.1311 15.5809 16.1361C15.1646 17.1411 14.4597 18.0001 13.5552 18.6044C12.6507 19.2088 11.5874 19.5314 10.4996 19.5314C9.04139 19.5297 7.6434 18.9497 6.61231 17.9186C5.58122 16.8875 5.00123 15.4895 4.99957 14.0314ZM31.2671 26.3689C31.0449 26.5137 30.7744 26.5644 30.5149 26.5098C30.2554 26.4552 30.0282 26.2997 29.8833 26.0776C28.9764 24.6803 27.7341 23.5322 26.2697 22.7381C24.8053 21.944 23.1654 21.5291 21.4996 21.5314C21.2344 21.5314 20.98 21.426 20.7925 21.2385C20.6049 21.0509 20.4996 20.7966 20.4996 20.5314C20.4996 20.2661 20.6049 20.0118 20.7925 19.8243C20.98 19.6367 21.2344 19.5314 21.4996 19.5314C22.3095 19.5306 23.1093 19.351 23.8418 19.0053C24.5743 18.6596 25.2214 18.1564 25.7369 17.5316C26.2523 16.9068 26.6234 16.1759 26.8237 15.3911C27.0239 14.6063 27.0483 13.7869 26.8952 12.9915C26.7421 12.1962 26.4152 11.4445 25.9378 10.7901C25.4605 10.1357 24.8445 9.59487 24.134 9.20615C23.4234 8.81744 22.6357 8.59046 21.8272 8.54145C21.0187 8.49243 20.2094 8.62259 19.4571 8.92261C19.3344 8.97564 19.2024 9.00354 19.0687 9.00467C18.9351 9.0058 18.8026 8.98014 18.679 8.92919C18.5555 8.87824 18.4434 8.80305 18.3494 8.70805C18.2554 8.61305 18.1814 8.50018 18.1318 8.3761C18.0822 8.25202 18.0579 8.11925 18.0605 7.98564C18.063 7.85202 18.0923 7.72028 18.1466 7.59818C18.201 7.47608 18.2792 7.36611 18.3768 7.27477C18.4743 7.18343 18.5892 7.11256 18.7146 7.06636C20.4364 6.37968 22.3515 6.35497 24.0905 6.997C25.8295 7.63903 27.2691 8.90231 28.1316 10.5431C28.9941 12.184 29.2184 14.0861 28.7612 15.8825C28.304 17.679 27.1978 19.2424 25.6558 20.2714C28.0802 21.1649 30.1507 22.8184 31.5583 24.9851C31.7032 25.2072 31.7539 25.4778 31.6992 25.7373C31.6446 25.9968 31.4892 26.224 31.2671 26.3689Z" fill="#006D86"/>
</svg>
