<svg width="65" height="65" viewBox="0 0 65 65" fill="none" xmlns="http://www.w3.org/2000/svg">
<path d="M32.5 20.3125C30.0895 20.3125 27.7332 21.0273 25.729 22.3665C23.7248 23.7056 22.1627 25.6091 21.2402 27.836C20.3178 30.063 20.0764 32.5135 20.5467 34.8777C21.0169 37.2418 22.1777 39.4134 23.8821 41.1179C25.5866 42.8223 27.7582 43.9831 30.1223 44.4533C32.4865 44.9236 34.937 44.6822 37.164 43.7598C39.3909 42.8373 41.2944 41.2752 42.6335 39.271C43.9727 37.2668 44.6875 34.9105 44.6875 32.5C44.6841 29.2687 43.399 26.1707 41.1142 23.8858C38.8293 21.601 35.7313 20.3159 32.5 20.3125ZM32.5 40.625C30.893 40.625 29.3221 40.1485 27.986 39.2557C26.6498 38.3629 25.6084 37.094 24.9935 35.6093C24.3785 34.1247 24.2176 32.491 24.5311 30.9149C24.8446 29.3388 25.6185 27.8911 26.7548 26.7548C27.8911 25.6185 29.3388 24.8446 30.9149 24.5311C32.491 24.2176 34.1247 24.3785 35.6093 24.9935C37.094 25.6084 38.3629 26.6498 39.2557 27.986C40.1485 29.3221 40.625 30.893 40.625 32.5C40.625 34.6549 39.769 36.7215 38.2452 38.2452C36.7215 39.769 34.6549 40.625 32.5 40.625ZM44.6875 6.09375H20.3125C16.5427 6.09778 12.9284 7.59712 10.2628 10.2628C7.59712 12.9284 6.09778 16.5427 6.09375 20.3125V44.6875C6.09778 48.4573 7.59712 52.0716 10.2628 54.7372C12.9284 57.4029 16.5427 58.9022 20.3125 58.9062H44.6875C48.4573 58.9022 52.0716 57.4029 54.7372 54.7372C57.4029 52.0716 58.9022 48.4573 58.9062 44.6875V20.3125C58.9022 16.5427 57.4029 12.9284 54.7372 10.2628C52.0716 7.59712 48.4573 6.09778 44.6875 6.09375ZM54.8438 44.6875C54.8438 47.3811 53.7737 49.9644 51.8691 51.8691C49.9644 53.7737 47.3811 54.8438 44.6875 54.8438H20.3125C17.6189 54.8438 15.0356 53.7737 13.1309 51.8691C11.2263 49.9644 10.1562 47.3811 10.1562 44.6875V20.3125C10.1562 17.6189 11.2263 15.0356 13.1309 13.1309C15.0356 11.2263 17.6189 10.1562 20.3125 10.1562H44.6875C47.3811 10.1562 49.9644 11.2263 51.8691 13.1309C53.7737 15.0356 54.8438 17.6189 54.8438 20.3125V44.6875ZM48.75 19.2969C48.75 19.8995 48.5713 20.4886 48.2365 20.9896C47.9017 21.4907 47.4259 21.8812 46.8691 22.1118C46.3124 22.3424 45.6997 22.4028 45.1087 22.2852C44.5177 22.1676 43.9748 21.8775 43.5487 21.4513C43.1225 21.0252 42.8324 20.4823 42.7148 19.8913C42.5972 19.3003 42.6576 18.6876 42.8882 18.1309C43.1188 17.5741 43.5093 17.0983 44.0104 16.7635C44.5114 16.4287 45.1005 16.25 45.7031 16.25C46.5112 16.25 47.2862 16.571 47.8576 17.1424C48.429 17.7138 48.75 18.4888 48.75 19.2969Z" fill="white"/>
</svg>
