<svg width="171" height="162" viewBox="0 0 171 162" fill="none" xmlns="http://www.w3.org/2000/svg">
<g clip-path="url(#clip0_256_727)">
<path d="M168.37 27H51.9531C50.8486 27 49.9531 27.8954 49.9531 29V38.5C49.9531 39.6046 50.8486 40.5 51.9531 40.5H168.37C169.474 40.5 170.37 39.6046 170.37 38.5V29C170.37 27.8954 169.474 27 168.37 27Z" fill="#F58F5C"/>
<path d="M168.37 74.25H51.9531C50.8486 74.25 49.9531 75.1454 49.9531 76.25V85.75C49.9531 86.8546 50.8486 87.75 51.9531 87.75H168.37C169.474 87.75 170.37 86.8546 170.37 85.75V76.25C170.37 75.1454 169.474 74.25 168.37 74.25Z" fill="#F58F5C"/>
<path d="M168.37 121.5H51.9531C50.8486 121.5 49.9531 122.395 49.9531 123.5V133C49.9531 134.105 50.8486 135 51.9531 135H168.37C169.474 135 170.37 134.105 170.37 133V123.5C170.37 122.395 169.474 121.5 168.37 121.5Z" fill="#F58F5C"/>
<path d="M14.5368 47.25C22.3608 47.25 28.7035 41.2058 28.7035 33.75C28.7035 26.2942 22.3608 20.25 14.5368 20.25C6.71275 20.25 0.370117 26.2942 0.370117 33.75C0.370117 41.2058 6.71275 47.25 14.5368 47.25Z" fill="#F58F5C"/>
<path d="M14.5368 94.5C22.3608 94.5 28.7035 88.4558 28.7035 81C28.7035 73.5442 22.3608 67.5 14.5368 67.5C6.71275 67.5 0.370117 73.5442 0.370117 81C0.370117 88.4558 6.71275 94.5 14.5368 94.5Z" fill="#F58F5C"/>
<path d="M14.5368 141.75C22.3608 141.75 28.7035 135.706 28.7035 128.25C28.7035 120.794 22.3608 114.75 14.5368 114.75C6.71275 114.75 0.370117 120.794 0.370117 128.25C0.370117 135.706 6.71275 141.75 14.5368 141.75Z" fill="#F58F5C"/>
</g>
<defs>
<clipPath id="clip0_256_727">
<rect width="170" height="162" fill="white" transform="translate(0.370117)"/>
</clipPath>
</defs>
</svg>
