<svg width="47" height="38" viewBox="0 0 47 38" fill="none" xmlns="http://www.w3.org/2000/svg">
<path d="M41.5857 9.34827C41.5857 13.0311 35.8215 23.892 32.5165 29.8165C32.2924 30.2185 31.9647 30.5533 31.5675 30.7865C31.1703 31.0196 30.718 31.1425 30.2572 31.1425C29.7965 31.1425 29.3441 31.0196 28.9469 30.7865C28.5497 30.5533 28.2221 30.2185 27.9979 29.8165C24.6929 23.892 18.9287 13.0311 18.9287 9.34827C18.9287 4.18536 24.0007 0 30.2572 0C36.5138 0 41.5857 4.18536 41.5857 9.34827Z" fill="url(#paint0_linear_348_19)"/>
<path d="M24.2672 11.1474C33.3578 11.4292 40.5381 19.2378 40.2465 28.6443C40.1751 30.9485 39.5357 32.4876 38.6025 33.5483C37.6594 34.6201 36.3253 35.3067 34.6811 35.7296C33.032 36.1537 31.1379 36.2955 29.1523 36.3249C27.9777 36.3424 26.8388 36.3216 25.7103 36.301C24.9689 36.2874 24.232 36.274 23.4924 36.2715C21.836 35.463 19.9266 35.0811 18.083 34.8085C17.4306 34.712 16.7929 34.6297 16.17 34.5492C14.8911 34.3841 13.6745 34.2269 12.5205 33.9723C10.826 33.5984 9.50088 33.0547 8.60821 32.1417C7.74949 31.2634 7.16417 29.9095 7.23509 27.6212C7.52663 18.2146 15.1767 10.8657 24.2672 11.1474Z" stroke="url(#paint1_linear_348_19)" stroke-width="2"/>
<path d="M11.8848 4.59766H13.1491C14.3961 4.59766 15.592 5.09236 16.4737 5.97295C17.3555 6.85353 17.8508 8.04787 17.8508 9.2932H11.8848V4.59766Z" fill="#006D86"/>
<path d="M25.691 31.4287L25.251 30.6962L29.3584 27.1802C32.395 25.7205 36.0553 26.1417 39.9204 27.1802V28.2056L36.1064 32.3077L31.7055 33.1867L25.691 31.4287Z" fill="#006D86"/>
<path d="M41.7381 29.2433C41.7381 28.0698 41.7381 27.674 41.7381 26.9512H40.3553V27.674L39.92 27.18L36.3994 30.696L35.8125 31.282L35.0791 34.212L36.3994 37.4349H43.1472V30.8425L41.7381 29.2433Z" fill="url(#paint2_linear_348_19)"/>
<path d="M25.2511 30.6958H36.3998V37.4348H25.2511C23.9023 35.9775 24.603 33.3212 25.2511 30.6958Z" fill="#F2F2F2"/>
<path d="M34.8598 32.8203H32.5127V34.8713H34.8598V32.8203Z" fill="#0388A6"/>
<path d="M31.5586 32.7471H29.5049V37.4351H31.5586V32.7471Z" fill="url(#paint3_linear_348_19)"/>
<path d="M27.1584 33.4795V32.7471H26.2783V33.4795H27.085H27.1584Z" fill="#0388A6"/>
<path d="M27.085 34.0654H26.2783V34.798H27.1584V34.0654H27.085Z" fill="#0388A6"/>
<path d="M28.6243 32.7471H27.7441V33.4796H28.6243V32.7471Z" fill="#0388A6"/>
<path d="M28.6243 34.0654H27.7441V34.7979H28.6243V34.0654Z" fill="#0388A6"/>
<path d="M39.5531 33.5529V32.8203H38.6729V33.5529H39.4797H39.5531Z" fill="#006D86"/>
<path d="M39.4797 34.1387H38.6729V34.8711H39.5531V34.1387H39.4797Z" fill="#006D86"/>
<path d="M41.0208 32.8203H40.1406V33.5528H41.0208V32.8203Z" fill="#006D86"/>
<path d="M41.0208 34.1387H40.1406V34.8712H41.0208V34.1387Z" fill="#006D86"/>
<path d="M5.83987 12.8848L5.10645 12.2987L9.21386 8.63623H19.6291V11.8593L12.8812 16.4008L5.83987 12.8848Z" fill="#006D86"/>
<path d="M21.439 10.3863V7.77376H20.0812V8.41363L19.5744 7.67725L16.2615 12.5067L14.9652 13.6658L12.9551 33.361L15.9865 37.4264H23.0314C23.0314 29.8228 23.0314 23.1794 23.0314 12.6998L21.439 10.3863Z" fill="url(#paint4_linear_348_19)"/>
<path d="M5.27833 12.4756H16.3143V37.4265H5.27833C5.27827 27.5961 5.27907 18.7272 5.27833 12.4756Z" fill="#F2F2F2"/>
<path d="M11.6504 32.6279H9.59668V37.3159H11.6504V32.6279Z" fill="url(#paint5_linear_348_19)"/>
<path d="M7.23363 34.1387V33.4062H6.35352V34.1387H7.16034H7.23363Z" fill="#0388A6"/>
<path d="M7.16034 34.7246H6.35352V35.4572H7.23363V34.7246H7.16034Z" fill="#0388A6"/>
<path d="M8.70047 33.4062H7.82031V34.1388H8.70047V33.4062Z" fill="#0388A6"/>
<path d="M13.175 34.7246H12.3682V35.4572H13.2483V34.7246H13.175Z" fill="#0388A6"/>
<path d="M14.7151 33.4062H13.835V34.1388H14.7151V33.4062Z" fill="#0388A6"/>
<path d="M14.7151 34.7246H13.835V35.4571H14.7151V34.7246Z" fill="#0388A6"/>
<path d="M19.4084 19.4888V18.7563H18.5283V19.4888H19.3351H19.4084Z" fill="#006D86"/>
<path d="M19.3351 20.0747H18.5283V20.8072H19.4084V20.0747H19.3351Z" fill="#006D86"/>
<path d="M20.8763 18.7563H19.9961V19.4888H20.8763V18.7563Z" fill="#006D86"/>
<path d="M20.8763 20.0747H19.9961V20.8072H20.8763V20.0747Z" fill="#006D86"/>
<path d="M19.4084 15.1704V14.438H18.5283V15.1704H19.3351H19.4084Z" fill="#006D86"/>
<path d="M19.3351 15.7563H18.5283V16.4888H19.4084V15.7563H19.3351Z" fill="#006D86"/>
<path d="M20.8763 14.438H19.9961V15.1705H20.8763V14.438Z" fill="#006D86"/>
<path d="M20.8763 15.7563H19.9961V16.4888H20.8763V15.7563Z" fill="#006D86"/>
<path d="M19.4084 23.591V22.8584H18.5283V23.591H19.3351H19.4084Z" fill="#006D86"/>
<path d="M19.3351 24.1768H18.5283V24.9092H19.4084V24.1768H19.3351Z" fill="#006D86"/>
<path d="M20.8763 22.8584H19.9961V23.5909H20.8763V22.8584Z" fill="#006D86"/>
<path d="M20.8763 24.1768H19.9961V24.9093H20.8763V24.1768Z" fill="#006D86"/>
<path d="M19.4084 27.693V26.9604H18.5283V27.693H19.3351H19.4084Z" fill="#006D86"/>
<path d="M19.3351 28.2788H18.5283V29.0113H19.4084V28.2788H19.3351Z" fill="#006D86"/>
<path d="M20.8763 26.9604H19.9961V27.6929H20.8763V26.9604Z" fill="#006D86"/>
<path d="M20.8763 28.2788H19.9961V29.0113H20.8763V28.2788Z" fill="#006D86"/>
<path d="M19.4084 31.7946V31.062H18.5283V31.7946H19.3351H19.4084Z" fill="#006D86"/>
<path d="M19.3351 32.3809H18.5283V33.1133H19.4084V32.3809H19.3351Z" fill="#006D86"/>
<path d="M20.8763 31.062H19.9961V31.7945H20.8763V31.062Z" fill="#006D86"/>
<path d="M20.8763 32.3809H19.9961V33.1134H20.8763V32.3809Z" fill="#006D86"/>
<path d="M6.35254 19.9688H14.8608V21.7267C11.9952 21.7267 9.59605 21.7267 6.35254 21.7267V19.9688Z" fill="#0388A6"/>
<path d="M6.35254 23.4844C9.00805 24.2657 11.8441 24.2657 14.8608 23.4844V25.2424H6.35254V23.4844Z" fill="#0388A6"/>
<path d="M6.2373 13.4351H14.7455V15.1931C11.6102 15.1931 9.42809 15.1931 6.2373 15.1931V13.4351Z" fill="#0388A6"/>
<path d="M6.2373 16.9512C8.89282 17.7325 11.7289 17.7325 14.7455 16.9512V18.7092H6.2373V16.9512Z" fill="#0388A6"/>
<path d="M6.35254 26.5205H14.8608V28.2785C11.5154 28.2785 9.35614 28.2785 6.35254 28.2785V26.5205Z" fill="#0388A6"/>
<path d="M6.35254 29.5566C9.12734 30.6246 11.966 30.5802 14.8608 29.5566V31.3146H6.35254V29.5566Z" fill="#0388A6"/>
<path d="M32.0947 22.627H33.359C34.606 22.627 35.8019 23.1217 36.6837 24.0022C37.5654 24.8828 38.0608 26.0772 38.0608 27.3225H32.0947V22.627Z" fill="#006D86"/>
<path d="M3.01938 28.9697H2.80664V37.3619H3.01938V28.9697Z" fill="#3F3D56"/>
<path d="M4.9834 30.0392C4.99694 32.9738 2.9296 35.3623 2.9296 35.3623C2.9296 35.3623 0.282101 32.9421 0.82676 30.0584C1.37453 27.1582 3.08172 24.7477 2.88056 24.7354C2.88056 24.7354 4.96986 27.1047 4.9834 30.0392Z" fill="#1195B3"/>
<path d="M24.2938 28.9697H24.0811V37.3619H24.2938V28.9697Z" fill="#3F3D56"/>
<path d="M26.2573 30.0392C26.4491 32.9676 24.2035 35.3623 24.2035 35.3623C24.2035 35.3623 22.1142 32.9929 22.1007 30.0584C22.0871 27.1238 24.1544 24.7354 24.1544 24.7354C23.9529 25.5398 26.1021 27.6699 26.2573 30.0392Z" fill="#1195B3"/>
<path d="M14.3945 8.63867H19.7125L23.5889 11.8701L22.9036 12.488L16.765 12.35L14.3945 8.63867Z" fill="#006D86"/>
<path d="M30.6826 27.5443L39.9235 27.0928L43.8 30.3242L43.1146 30.9421L36.9761 30.8041L30.6826 27.5443Z" fill="#006D86"/>
<path d="M0 37.4264L46.0633 37.1865" stroke="#1195B3"/>
<path d="M30.3101 15.4033C33.7175 15.4033 36.4797 12.6448 36.4797 9.24193C36.4797 5.8391 33.7175 3.08057 30.3101 3.08057C26.9028 3.08057 24.1406 5.8391 24.1406 9.24193C24.1406 12.6448 26.9028 15.4033 30.3101 15.4033Z" fill="url(#paint6_radial_348_19)"/>
<defs>
<linearGradient id="paint0_linear_348_19" x1="30.2572" y1="0" x2="30.2572" y2="31.1425" gradientUnits="userSpaceOnUse">
<stop stop-color="#006D86" stop-opacity="0.84"/>
<stop offset="1" stop-color="#139AB9" stop-opacity="0.5"/>
</linearGradient>
<linearGradient id="paint1_linear_348_19" x1="14.8093" y1="9.38499" x2="36.2112" y2="39.0917" gradientUnits="userSpaceOnUse">
<stop stop-color="#006379"/>
<stop offset="1" stop-color="#28ABC9" stop-opacity="0.73"/>
</linearGradient>
<linearGradient id="paint2_linear_348_19" x1="43.1841" y1="33.8277" x2="36.4666" y2="34.0676" gradientUnits="userSpaceOnUse">
<stop stop-color="#A8A6A6"/>
<stop offset="1" stop-color="#DADADA"/>
</linearGradient>
<linearGradient id="paint3_linear_348_19" x1="31.4284" y1="35.0274" x2="29.749" y2="35.0274" gradientUnits="userSpaceOnUse">
<stop offset="0.1474" stop-color="#A8A6A6"/>
<stop offset="1" stop-color="#B5B2B2" stop-opacity="0.53"/>
</linearGradient>
<linearGradient id="paint4_linear_348_19" x1="23.0314" y1="23.7514" x2="15.1143" y2="23.7514" gradientUnits="userSpaceOnUse">
<stop stop-color="#ADADAD"/>
<stop offset="1" stop-color="#DADADA"/>
</linearGradient>
<linearGradient id="paint5_linear_348_19" x1="11.5202" y1="34.9083" x2="9.84081" y2="34.9083" gradientUnits="userSpaceOnUse">
<stop offset="0.1474" stop-color="#A8A6A6"/>
<stop offset="1" stop-color="#B5B2B2" stop-opacity="0.53"/>
</linearGradient>
<radialGradient id="paint6_radial_348_19" cx="0" cy="0" r="1" gradientUnits="userSpaceOnUse" gradientTransform="translate(30.3101 9.24193) rotate(90) scale(6.16136 6.16952)">
<stop stop-color="white"/>
<stop offset="1" stop-color="#D6D6D6"/>
</radialGradient>
</defs>
</svg>
