<svg width="288" height="47" viewBox="0 0 288 47" fill="none" xmlns="http://www.w3.org/2000/svg">
<path d="M41.9179 9.34827C41.9179 13.0311 36.1442 23.892 32.8338 29.8165C32.6092 30.2185 32.2811 30.5533 31.8832 30.7865C31.4853 31.0196 31.0322 31.1425 30.5708 31.1425C30.1093 31.1425 29.6562 31.0196 29.2583 30.7865C28.8604 30.5533 28.5323 30.2185 28.3077 29.8165C24.9973 23.892 19.2236 13.0311 19.2236 9.34827C19.2236 4.18536 24.3039 0 30.5708 0C36.8376 0 41.9179 4.18536 41.9179 9.34827Z" fill="url(#paint0_linear_328_399)"/>
<path d="M24.5707 11.1474C33.6787 11.4292 40.8699 19.2394 40.5779 28.6444C40.5064 30.9482 39.8661 32.4871 38.9313 33.5477C37.9866 34.6196 36.6499 35.3065 35.0026 35.7295C33.3504 36.1537 31.453 36.2955 29.4639 36.3249C28.2874 36.3424 27.1465 36.3216 26.0161 36.301C25.2732 36.2874 24.5349 36.274 23.794 36.2715C22.1352 35.463 20.2228 35.0811 18.376 34.8085C17.7226 34.712 17.084 34.6297 16.4601 34.5492C15.179 34.384 13.9602 34.2269 12.8041 33.9722C11.1066 33.5982 9.77873 33.0544 8.8843 32.1411C8.02407 31.2627 7.43797 29.909 7.509 27.6211C7.80097 18.2161 15.4628 10.8656 24.5707 11.1474Z" stroke="url(#paint1_linear_328_399)" stroke-width="2"/>
<path d="M12.168 4.59766H13.4344C14.6834 4.59766 15.8813 5.09236 16.7645 5.97295C17.6477 6.85353 18.1438 8.04787 18.1438 9.2932H12.168V4.59766Z" fill="url(#paint2_linear_328_399)"/>
<path d="M25.9964 31.4287L25.5557 30.6962L29.6698 27.1802C32.7114 25.7205 36.3777 26.1417 40.2492 27.1802V28.2056L36.4289 32.3077L32.0208 33.1867L25.9964 31.4287Z" fill="url(#paint3_linear_328_399)"/>
<path d="M42.0704 29.2433C42.0704 28.0698 42.0704 27.674 42.0704 26.9512H40.6853V27.674L40.2493 27.18L36.7228 30.696L36.135 31.282L35.4004 34.212L36.7228 37.4349H43.4818V30.8425L42.0704 29.2433Z" fill="url(#paint4_linear_328_399)"/>
<path d="M25.5561 30.6958H36.7231V37.4348H25.5561C24.2051 35.9775 24.9069 33.3212 25.5561 30.6958Z" fill="#F2F2F2"/>
<path d="M35.181 32.8203H32.8301V34.8713H35.181V32.8203Z" fill="#0388A6"/>
<path d="M31.8745 32.7471H29.8174V37.4351H31.8745V32.7471Z" fill="url(#paint5_linear_328_399)"/>
<path d="M27.4665 33.4795V32.7471H26.585V33.4795H27.393H27.4665Z" fill="#0388A6"/>
<path d="M27.393 34.0654H26.585V34.798H27.4665V34.0654H27.393Z" fill="#0388A6"/>
<path d="M28.9353 32.7471H28.0537V33.4796H28.9353V32.7471Z" fill="#0388A6"/>
<path d="M28.9353 34.0654H28.0537V34.7979H28.9353V34.0654Z" fill="#0388A6"/>
<path d="M39.8817 33.5529V32.8203H39V33.5529H39.8082H39.8817Z" fill="url(#paint6_linear_328_399)"/>
<path d="M39.8082 34.1387H39V34.8711H39.8817V34.1387H39.8082Z" fill="url(#paint7_linear_328_399)"/>
<path d="M41.3513 32.8203H40.4697V33.5528H41.3513V32.8203Z" fill="url(#paint8_linear_328_399)"/>
<path d="M41.3513 34.1387H40.4697V34.8712H41.3513V34.1387Z" fill="url(#paint9_linear_328_399)"/>
<path d="M6.11354 12.8848L5.37891 12.2987L9.49306 8.63623H19.9254V11.8593L13.1664 16.4008L6.11354 12.8848Z" fill="url(#paint10_linear_328_399)"/>
<path d="M21.7381 10.3863V7.77376H20.3781V8.41363L19.8704 7.67725L16.552 12.5067L15.2536 13.6658L13.2402 33.361L16.2766 37.4264H23.3331C23.3331 29.8228 23.3331 23.1794 23.3331 12.6998L21.7381 10.3863Z" fill="url(#paint11_linear_328_399)"/>
<path d="M5.55079 12.4756H16.6049V37.4265H5.55079C5.55073 27.5961 5.55153 18.7272 5.55079 12.4756Z" fill="#F2F2F2"/>
<path d="M11.9331 32.6279H9.87598V37.3159H11.9331V32.6279Z" fill="url(#paint12_linear_328_399)"/>
<path d="M7.50949 34.1387V33.4062H6.62793V34.1387H7.43608H7.50949Z" fill="#0388A6"/>
<path d="M7.43608 34.7246H6.62793V35.4572H7.50949V34.7246H7.43608Z" fill="#0388A6"/>
<path d="M8.97829 33.4062H8.09668V34.1388H8.97829V33.4062Z" fill="#0388A6"/>
<path d="M13.4605 34.7246H12.6523V35.4572H13.5339V34.7246H13.4605Z" fill="#0388A6"/>
<path d="M15.0027 33.4062H14.1211V34.1388H15.0027V33.4062Z" fill="#0388A6"/>
<path d="M15.0027 34.7246H14.1211V35.4571H15.0027V34.7246Z" fill="#0388A6"/>
<path d="M19.7038 19.4888V18.7563H18.8223V19.4888H19.6304H19.7038Z" fill="url(#paint13_linear_328_399)"/>
<path d="M19.6304 20.0747H18.8223V20.8072H19.7038V20.0747H19.6304Z" fill="url(#paint14_linear_328_399)"/>
<path d="M21.1746 18.7563H20.293V19.4888H21.1746V18.7563Z" fill="url(#paint15_linear_328_399)"/>
<path d="M21.1746 20.0747H20.293V20.8072H21.1746V20.0747Z" fill="url(#paint16_linear_328_399)"/>
<path d="M19.7038 15.1704V14.438H18.8223V15.1704H19.6304H19.7038Z" fill="url(#paint17_linear_328_399)"/>
<path d="M19.6304 15.7563H18.8223V16.4888H19.7038V15.7563H19.6304Z" fill="url(#paint18_linear_328_399)"/>
<path d="M21.1746 14.438H20.293V15.1705H21.1746V14.438Z" fill="url(#paint19_linear_328_399)"/>
<path d="M21.1746 15.7563H20.293V16.4888H21.1746V15.7563Z" fill="url(#paint20_linear_328_399)"/>
<path d="M19.7038 23.591V22.8584H18.8223V23.591H19.6304H19.7038Z" fill="url(#paint21_linear_328_399)"/>
<path d="M19.6304 24.1768H18.8223V24.9092H19.7038V24.1768H19.6304Z" fill="url(#paint22_linear_328_399)"/>
<path d="M21.1746 22.8584H20.293V23.5909H21.1746V22.8584Z" fill="url(#paint23_linear_328_399)"/>
<path d="M21.1746 24.1768H20.293V24.9093H21.1746V24.1768Z" fill="url(#paint24_linear_328_399)"/>
<path d="M19.7038 27.693V26.9604H18.8223V27.693H19.6304H19.7038Z" fill="url(#paint25_linear_328_399)"/>
<path d="M19.6304 28.2788H18.8223V29.0113H19.7038V28.2788H19.6304Z" fill="url(#paint26_linear_328_399)"/>
<path d="M21.1746 26.9604H20.293V27.6929H21.1746V26.9604Z" fill="url(#paint27_linear_328_399)"/>
<path d="M21.1746 28.2788H20.293V29.0113H21.1746V28.2788Z" fill="url(#paint28_linear_328_399)"/>
<path d="M19.7038 31.7946V31.062H18.8223V31.7946H19.6304H19.7038Z" fill="url(#paint29_linear_328_399)"/>
<path d="M19.6304 32.3809H18.8223V33.1133H19.7038V32.3809H19.6304Z" fill="url(#paint30_linear_328_399)"/>
<path d="M21.1746 31.062H20.293V31.7945H21.1746V31.062Z" fill="url(#paint31_linear_328_399)"/>
<path d="M21.1746 32.3809H20.293V33.1134H21.1746V32.3809Z" fill="url(#paint32_linear_328_399)"/>
<path d="M6.62695 19.9688H15.1492V21.7267C12.2789 21.7267 9.87579 21.7267 6.62695 21.7267V19.9688Z" fill="#0388A6"/>
<path d="M6.62695 23.4844C9.28683 24.2657 12.1276 24.2657 15.1492 23.4844V25.2424H6.62695V23.4844Z" fill="#0388A6"/>
<path d="M6.51074 13.4351H15.033V15.1931C11.8925 15.1931 9.70676 15.1931 6.51074 15.1931V13.4351Z" fill="#0388A6"/>
<path d="M6.51074 16.9512C9.17062 17.7325 12.0114 17.7325 15.033 16.9512V18.7092H6.51074V16.9512Z" fill="#0388A6"/>
<path d="M6.62695 26.5205H15.1492V28.2785C11.7982 28.2785 9.63548 28.2785 6.62695 28.2785V26.5205Z" fill="#0388A6"/>
<path d="M6.62695 29.5566C9.40631 30.6246 12.2496 30.5802 15.1492 29.5566V31.3146H6.62695V29.5566Z" fill="#0388A6"/>
<path d="M32.4111 22.627H33.6775C34.9265 22.627 36.1244 23.1217 37.0076 24.0022C37.8908 24.8828 38.387 26.0772 38.387 27.3225H32.4111V22.627Z" fill="url(#paint33_linear_328_399)"/>
<path d="M3.28794 28.9697H3.0752V37.3619H3.28794V28.9697Z" fill="#3F3D56"/>
<path d="M5.25499 30.0392C5.26856 32.9738 3.19782 35.3623 3.19782 35.3623C3.19782 35.3623 0.545977 32.9421 1.09153 30.0584C1.6402 27.1582 3.35019 24.7477 3.1487 24.7354C3.1487 24.7354 5.24143 27.1047 5.25499 30.0392Z" fill="#1195B3"/>
<path d="M24.5965 28.9697H24.3838V37.3619H24.5965V28.9697Z" fill="#3F3D56"/>
<path d="M26.5639 30.0392C26.756 32.9676 24.5068 35.3623 24.5068 35.3623C24.5068 35.3623 22.414 32.9929 22.4005 30.0584C22.3869 27.1238 24.4576 24.7354 24.4576 24.7354C24.2557 25.5398 26.4085 27.6699 26.5639 30.0392Z" fill="#1195B3"/>
<path d="M14.6816 8.63867H20.0083L23.8911 11.8701L23.2047 12.488L17.056 12.35L14.6816 8.63867Z" fill="url(#paint34_linear_328_399)"/>
<path d="M30.9971 27.5443L40.2531 27.0928L44.136 30.3242L43.4495 30.9421L37.3008 30.8041L30.9971 27.5443Z" fill="url(#paint35_linear_328_399)"/>
<path d="M0.263672 37.4264L46.4026 37.1865" stroke="#1195B3"/>
<path d="M30.624 15.4033C34.0369 15.4033 36.8036 12.6448 36.8036 9.24193C36.8036 5.8391 34.0369 3.08057 30.624 3.08057C27.2111 3.08057 24.4443 5.8391 24.4443 9.24193C24.4443 12.6448 27.2111 15.4033 30.624 15.4033Z" fill="url(#paint36_radial_328_399)"/>
<g filter="url(#filter0_d_328_399)">
<path d="M48.8298 32V11H59.0898C61.7298 11 63.7098 11.5 65.0298 12.5C66.3698 13.5 67.0398 14.82 67.0398 16.46C67.0398 17.56 66.7698 18.52 66.2298 19.34C65.6898 20.14 64.9498 20.76 64.0098 21.2C63.0698 21.64 61.9898 21.86 60.7698 21.86L61.3398 20.63C62.6598 20.63 63.8298 20.85 64.8498 21.29C65.8698 21.71 66.6598 22.34 67.2198 23.18C67.7998 24.02 68.0898 25.05 68.0898 26.27C68.0898 28.07 67.3798 29.48 65.9598 30.5C64.5398 31.5 62.4498 32 59.6898 32H48.8298ZM53.6598 28.34H59.3298C60.5898 28.34 61.5398 28.14 62.1798 27.74C62.8398 27.32 63.1698 26.66 63.1698 25.76C63.1698 24.88 62.8398 24.23 62.1798 23.81C61.5398 23.37 60.5898 23.15 59.3298 23.15H53.2998V19.61H58.4898C59.6698 19.61 60.5698 19.41 61.1898 19.01C61.8298 18.59 62.1498 17.96 62.1498 17.12C62.1498 16.3 61.8298 15.69 61.1898 15.29C60.5698 14.87 59.6698 14.66 58.4898 14.66H53.6598V28.34ZM78.2493 32.24C76.9093 32.24 75.7093 31.98 74.6493 31.46C73.6093 30.94 72.7993 30.15 72.2193 29.09C71.6393 28.01 71.3493 26.64 71.3493 24.98V15.86H76.0293V24.29C76.0293 25.63 76.3093 26.62 76.8693 27.26C77.4493 27.88 78.2593 28.19 79.2993 28.19C80.0193 28.19 80.6593 28.04 81.2193 27.74C81.7793 27.42 82.2193 26.94 82.5393 26.3C82.8593 25.64 83.0193 24.82 83.0193 23.84V15.86H87.6993V32H83.2593V27.56L84.0693 28.85C83.5293 29.97 82.7293 30.82 81.6693 31.4C80.6293 31.96 79.4893 32.24 78.2493 32.24ZM97.465 32.24C96.085 32.24 94.755 32.08 93.475 31.76C92.215 31.42 91.215 31 90.475 30.5L92.035 27.14C92.775 27.6 93.645 27.98 94.645 28.28C95.665 28.56 96.665 28.7 97.645 28.7C98.725 28.7 99.485 28.57 99.925 28.31C100.385 28.05 100.615 27.69 100.615 27.23C100.615 26.85 100.435 26.57 100.075 26.39C99.735 26.19 99.275 26.04 98.695 25.94C98.115 25.84 97.475 25.74 96.775 25.64C96.095 25.54 95.405 25.41 94.705 25.25C94.005 25.07 93.365 24.81 92.785 24.47C92.205 24.13 91.735 23.67 91.375 23.09C91.035 22.51 90.865 21.76 90.865 20.84C90.865 19.82 91.155 18.92 91.735 18.14C92.335 17.36 93.195 16.75 94.315 16.31C95.435 15.85 96.775 15.62 98.335 15.62C99.435 15.62 100.555 15.74 101.695 15.98C102.835 16.22 103.785 16.57 104.545 17.03L102.985 20.36C102.205 19.9 101.415 19.59 100.615 19.43C99.835 19.25 99.075 19.16 98.335 19.16C97.295 19.16 96.535 19.3 96.055 19.58C95.575 19.86 95.335 20.22 95.335 20.66C95.335 21.06 95.505 21.36 95.845 21.56C96.205 21.76 96.675 21.92 97.255 22.04C97.835 22.16 98.465 22.27 99.145 22.37C99.845 22.45 100.545 22.58 101.245 22.76C101.945 22.94 102.575 23.2 103.135 23.54C103.715 23.86 104.185 24.31 104.545 24.89C104.905 25.45 105.085 26.19 105.085 27.11C105.085 28.11 104.785 29 104.185 29.78C103.585 30.54 102.715 31.14 101.575 31.58C100.455 32.02 99.085 32.24 97.465 32.24ZM107.973 32V15.86H112.653V32H107.973ZM110.313 13.61C109.453 13.61 108.753 13.36 108.213 12.86C107.673 12.36 107.403 11.74 107.403 11C107.403 10.26 107.673 9.64 108.213 9.14C108.753 8.64 109.453 8.39 110.313 8.39C111.173 8.39 111.873 8.63 112.413 9.11C112.953 9.57 113.223 10.17 113.223 10.91C113.223 11.69 112.953 12.34 112.413 12.86C111.893 13.36 111.193 13.61 110.313 13.61ZM126.806 15.62C128.086 15.62 129.226 15.88 130.226 16.4C131.246 16.9 132.046 17.68 132.626 18.74C133.206 19.78 133.496 21.12 133.496 22.76V32H128.816V23.48C128.816 22.18 128.526 21.22 127.946 20.6C127.386 19.98 126.586 19.67 125.546 19.67C124.806 19.67 124.136 19.83 123.536 20.15C122.956 20.45 122.496 20.92 122.156 21.56C121.836 22.2 121.676 23.02 121.676 24.02V32H116.996V15.86H121.466V20.33L120.626 18.98C121.206 17.9 122.036 17.07 123.116 16.49C124.196 15.91 125.426 15.62 126.806 15.62ZM145.865 32.24C144.025 32.24 142.405 31.88 141.005 31.16C139.625 30.44 138.555 29.46 137.795 28.22C137.035 26.96 136.655 25.53 136.655 23.93C136.655 22.31 137.025 20.88 137.765 19.64C138.525 18.38 139.555 17.4 140.855 16.7C142.155 15.98 143.625 15.62 145.265 15.62C146.845 15.62 148.265 15.96 149.525 16.64C150.805 17.3 151.815 18.26 152.555 19.52C153.295 20.76 153.665 22.25 153.665 23.99C153.665 24.17 153.655 24.38 153.635 24.62C153.615 24.84 153.595 25.05 153.575 25.25H140.465V22.52H151.115L149.315 23.33C149.315 22.49 149.145 21.76 148.805 21.14C148.465 20.52 147.995 20.04 147.395 19.7C146.795 19.34 146.095 19.16 145.295 19.16C144.495 19.16 143.785 19.34 143.165 19.7C142.565 20.04 142.095 20.53 141.755 21.17C141.415 21.79 141.245 22.53 141.245 23.39V24.11C141.245 24.99 141.435 25.77 141.815 26.45C142.215 27.11 142.765 27.62 143.465 27.98C144.185 28.32 145.025 28.49 145.985 28.49C146.845 28.49 147.595 28.36 148.235 28.1C148.895 27.84 149.495 27.45 150.035 26.93L152.525 29.63C151.785 30.47 150.855 31.12 149.735 31.58C148.615 32.02 147.325 32.24 145.865 32.24ZM162.211 32.24C160.831 32.24 159.501 32.08 158.221 31.76C156.961 31.42 155.961 31 155.221 30.5L156.781 27.14C157.521 27.6 158.391 27.98 159.391 28.28C160.411 28.56 161.411 28.7 162.391 28.7C163.471 28.7 164.231 28.57 164.671 28.31C165.131 28.05 165.361 27.69 165.361 27.23C165.361 26.85 165.181 26.57 164.821 26.39C164.481 26.19 164.021 26.04 163.441 25.94C162.861 25.84 162.221 25.74 161.521 25.64C160.841 25.54 160.151 25.41 159.451 25.25C158.751 25.07 158.111 24.81 157.531 24.47C156.951 24.13 156.481 23.67 156.121 23.09C155.781 22.51 155.611 21.76 155.611 20.84C155.611 19.82 155.901 18.92 156.481 18.14C157.081 17.36 157.941 16.75 159.061 16.31C160.181 15.85 161.521 15.62 163.081 15.62C164.181 15.62 165.301 15.74 166.441 15.98C167.581 16.22 168.531 16.57 169.291 17.03L167.731 20.36C166.951 19.9 166.161 19.59 165.361 19.43C164.581 19.25 163.821 19.16 163.081 19.16C162.041 19.16 161.281 19.3 160.801 19.58C160.321 19.86 160.081 20.22 160.081 20.66C160.081 21.06 160.251 21.36 160.591 21.56C160.951 21.76 161.421 21.92 162.001 22.04C162.581 22.16 163.211 22.27 163.891 22.37C164.591 22.45 165.291 22.58 165.991 22.76C166.691 22.94 167.321 23.2 167.881 23.54C168.461 23.86 168.931 24.31 169.291 24.89C169.651 25.45 169.831 26.19 169.831 27.11C169.831 28.11 169.531 29 168.931 29.78C168.331 30.54 167.461 31.14 166.321 31.58C165.201 32.02 163.831 32.24 162.211 32.24ZM179.949 32.36C178.269 32.36 176.659 32.14 175.119 31.7C173.579 31.24 172.339 30.65 171.399 29.93L173.049 26.27C173.949 26.91 175.009 27.44 176.229 27.86C177.469 28.26 178.719 28.46 179.979 28.46C180.939 28.46 181.709 28.37 182.289 28.19C182.889 27.99 183.329 27.72 183.609 27.38C183.889 27.04 184.029 26.65 184.029 26.21C184.029 25.65 183.809 25.21 183.369 24.89C182.929 24.55 182.349 24.28 181.629 24.08C180.909 23.86 180.109 23.66 179.229 23.48C178.369 23.28 177.499 23.04 176.619 22.76C175.759 22.48 174.969 22.12 174.249 21.68C173.529 21.24 172.939 20.66 172.479 19.94C172.039 19.22 171.819 18.3 171.819 17.18C171.819 15.98 172.139 14.89 172.779 13.91C173.439 12.91 174.419 12.12 175.719 11.54C177.039 10.94 178.689 10.64 180.669 10.64C181.989 10.64 183.289 10.8 184.569 11.12C185.849 11.42 186.979 11.88 187.959 12.5L186.459 16.19C185.479 15.63 184.499 15.22 183.519 14.96C182.539 14.68 181.579 14.54 180.639 14.54C179.699 14.54 178.929 14.65 178.329 14.87C177.729 15.09 177.299 15.38 177.039 15.74C176.779 16.08 176.649 16.48 176.649 16.94C176.649 17.48 176.869 17.92 177.309 18.26C177.749 18.58 178.329 18.84 179.049 19.04C179.769 19.24 180.559 19.44 181.419 19.64C182.299 19.84 183.169 20.07 184.029 20.33C184.909 20.59 185.709 20.94 186.429 21.38C187.149 21.82 187.729 22.4 188.169 23.12C188.629 23.84 188.859 24.75 188.859 25.85C188.859 27.03 188.529 28.11 187.869 29.09C187.209 30.07 186.219 30.86 184.899 31.46C183.599 32.06 181.949 32.36 179.949 32.36ZM193.596 38.06C192.756 38.06 191.926 37.93 191.106 37.67C190.286 37.41 189.616 37.05 189.096 36.59L190.806 33.26C191.166 33.58 191.576 33.83 192.036 34.01C192.516 34.19 192.986 34.28 193.446 34.28C194.106 34.28 194.626 34.12 195.006 33.8C195.406 33.5 195.766 32.99 196.086 32.27L196.926 30.29L197.286 29.78L203.076 15.86H207.576L200.286 32.99C199.766 34.29 199.166 35.31 198.486 36.05C197.826 36.79 197.086 37.31 196.266 37.61C195.466 37.91 194.576 38.06 193.596 38.06ZM196.356 32.63L189.156 15.86H193.986L199.566 29.36L196.356 32.63ZM214.682 32.24C213.302 32.24 211.972 32.08 210.692 31.76C209.432 31.42 208.432 31 207.692 30.5L209.252 27.14C209.992 27.6 210.862 27.98 211.862 28.28C212.882 28.56 213.882 28.7 214.862 28.7C215.942 28.7 216.702 28.57 217.142 28.31C217.602 28.05 217.832 27.69 217.832 27.23C217.832 26.85 217.652 26.57 217.292 26.39C216.952 26.19 216.492 26.04 215.912 25.94C215.332 25.84 214.692 25.74 213.992 25.64C213.312 25.54 212.622 25.41 211.922 25.25C211.222 25.07 210.582 24.81 210.002 24.47C209.422 24.13 208.952 23.67 208.592 23.09C208.252 22.51 208.082 21.76 208.082 20.84C208.082 19.82 208.372 18.92 208.952 18.14C209.552 17.36 210.412 16.75 211.532 16.31C212.652 15.85 213.992 15.62 215.552 15.62C216.652 15.62 217.772 15.74 218.912 15.98C220.052 16.22 221.002 16.57 221.762 17.03L220.202 20.36C219.422 19.9 218.632 19.59 217.832 19.43C217.052 19.25 216.292 19.16 215.552 19.16C214.512 19.16 213.752 19.3 213.272 19.58C212.792 19.86 212.552 20.22 212.552 20.66C212.552 21.06 212.722 21.36 213.062 21.56C213.422 21.76 213.892 21.92 214.472 22.04C215.052 22.16 215.682 22.27 216.362 22.37C217.062 22.45 217.762 22.58 218.462 22.76C219.162 22.94 219.792 23.2 220.352 23.54C220.932 23.86 221.402 24.31 221.762 24.89C222.122 25.45 222.302 26.19 222.302 27.11C222.302 28.11 222.002 29 221.402 29.78C220.802 30.54 219.932 31.14 218.792 31.58C217.672 32.02 216.302 32.24 214.682 32.24ZM231.789 32.24C229.889 32.24 228.409 31.76 227.349 30.8C226.289 29.82 225.759 28.37 225.759 26.45V12.29H230.439V26.39C230.439 27.07 230.619 27.6 230.979 27.98C231.339 28.34 231.829 28.52 232.449 28.52C233.189 28.52 233.819 28.32 234.339 27.92L235.599 31.22C235.119 31.56 234.539 31.82 233.859 32C233.199 32.16 232.509 32.24 231.789 32.24ZM223.269 19.82V16.22H234.459V19.82H223.269ZM245.738 32.24C243.898 32.24 242.278 31.88 240.878 31.16C239.498 30.44 238.428 29.46 237.668 28.22C236.908 26.96 236.528 25.53 236.528 23.93C236.528 22.31 236.898 20.88 237.638 19.64C238.398 18.38 239.428 17.4 240.728 16.7C242.028 15.98 243.498 15.62 245.138 15.62C246.718 15.62 248.138 15.96 249.398 16.64C250.678 17.3 251.688 18.26 252.428 19.52C253.168 20.76 253.538 22.25 253.538 23.99C253.538 24.17 253.528 24.38 253.508 24.62C253.488 24.84 253.468 25.05 253.448 25.25H240.338V22.52H250.988L249.188 23.33C249.188 22.49 249.018 21.76 248.678 21.14C248.338 20.52 247.868 20.04 247.268 19.7C246.668 19.34 245.968 19.16 245.168 19.16C244.368 19.16 243.658 19.34 243.038 19.7C242.438 20.04 241.968 20.53 241.628 21.17C241.288 21.79 241.118 22.53 241.118 23.39V24.11C241.118 24.99 241.308 25.77 241.688 26.45C242.088 27.11 242.638 27.62 243.338 27.98C244.058 28.32 244.898 28.49 245.858 28.49C246.718 28.49 247.468 28.36 248.108 28.1C248.768 27.84 249.368 27.45 249.908 26.93L252.398 29.63C251.658 30.47 250.728 31.12 249.608 31.58C248.488 32.02 247.198 32.24 245.738 32.24ZM277.324 15.62C278.604 15.62 279.734 15.88 280.714 16.4C281.714 16.9 282.494 17.68 283.054 18.74C283.634 19.78 283.924 21.12 283.924 22.76V32H279.244V23.48C279.244 22.18 278.974 21.22 278.434 20.6C277.894 19.98 277.134 19.67 276.154 19.67C275.474 19.67 274.864 19.83 274.324 20.15C273.784 20.45 273.364 20.91 273.064 21.53C272.764 22.15 272.614 22.94 272.614 23.9V32H267.934V23.48C267.934 22.18 267.664 21.22 267.124 20.6C266.604 19.98 265.854 19.67 264.874 19.67C264.194 19.67 263.584 19.83 263.044 20.15C262.504 20.45 262.084 20.91 261.784 21.53C261.484 22.15 261.334 22.94 261.334 23.9V32H256.654V15.86H261.124V20.27L260.284 18.98C260.844 17.88 261.634 17.05 262.654 16.49C263.694 15.91 264.874 15.62 266.194 15.62C267.674 15.62 268.964 16 270.064 16.76C271.184 17.5 271.924 18.64 272.284 20.18L270.634 19.73C271.174 18.47 272.034 17.47 273.214 16.73C274.414 15.99 275.784 15.62 277.324 15.62Z" fill="#0388A6"/>
</g>
<defs>
<filter id="filter0_d_328_399" x="44.8301" y="8.39014" width="243.094" height="37.6699" filterUnits="userSpaceOnUse" color-interpolation-filters="sRGB">
<feFlood flood-opacity="0" result="BackgroundImageFix"/>
<feColorMatrix in="SourceAlpha" type="matrix" values="0 0 0 0 0 0 0 0 0 0 0 0 0 0 0 0 0 0 127 0" result="hardAlpha"/>
<feOffset dy="4"/>
<feGaussianBlur stdDeviation="2"/>
<feComposite in2="hardAlpha" operator="out"/>
<feColorMatrix type="matrix" values="0 0 0 0 0 0 0 0 0 0 0 0 0 0 0 0 0 0 0.25 0"/>
<feBlend mode="normal" in2="BackgroundImageFix" result="effect1_dropShadow_328_399"/>
<feBlend mode="normal" in="SourceGraphic" in2="effect1_dropShadow_328_399" result="shape"/>
</filter>
<linearGradient id="paint0_linear_328_399" x1="30.5708" y1="0" x2="30.5708" y2="31.1425" gradientUnits="userSpaceOnUse">
<stop stop-color="#006D86" stop-opacity="0.84"/>
<stop offset="1" stop-color="#139AB9" stop-opacity="0.5"/>
</linearGradient>
<linearGradient id="paint1_linear_328_399" x1="15.0972" y1="9.38499" x2="36.488" y2="39.125" gradientUnits="userSpaceOnUse">
<stop stop-color="#006379"/>
<stop offset="1" stop-color="#28ABC9" stop-opacity="0.73"/>
</linearGradient>
<linearGradient id="paint2_linear_328_399" x1="15.1559" y1="4.59766" x2="15.1559" y2="9.2932" gradientUnits="userSpaceOnUse">
<stop offset="0.130208" stop-color="#006D86"/>
<stop offset="1" stop-color="#006D86" stop-opacity="0"/>
</linearGradient>
<linearGradient id="paint3_linear_328_399" x1="32.9024" y1="26.2368" x2="32.9024" y2="33.1867" gradientUnits="userSpaceOnUse">
<stop offset="0.130208" stop-color="#006D86"/>
<stop offset="1" stop-color="#006D86" stop-opacity="0"/>
</linearGradient>
<linearGradient id="paint4_linear_328_399" x1="43.5187" y1="33.8277" x2="36.7902" y2="34.0684" gradientUnits="userSpaceOnUse">
<stop stop-color="#A8A6A6"/>
<stop offset="1" stop-color="#DADADA"/>
</linearGradient>
<linearGradient id="paint5_linear_328_399" x1="31.7441" y1="35.0274" x2="30.0619" y2="35.0274" gradientUnits="userSpaceOnUse">
<stop offset="0.1474" stop-color="#A8A6A6"/>
<stop offset="1" stop-color="#B5B2B2" stop-opacity="0.53"/>
</linearGradient>
<linearGradient id="paint6_linear_328_399" x1="39.4408" y1="32.8203" x2="39.4408" y2="33.5529" gradientUnits="userSpaceOnUse">
<stop offset="0.130208" stop-color="#006D86"/>
<stop offset="1" stop-color="#006D86" stop-opacity="0"/>
</linearGradient>
<linearGradient id="paint7_linear_328_399" x1="39.4408" y1="34.1387" x2="39.4408" y2="34.8711" gradientUnits="userSpaceOnUse">
<stop offset="0.130208" stop-color="#006D86"/>
<stop offset="1" stop-color="#006D86" stop-opacity="0"/>
</linearGradient>
<linearGradient id="paint8_linear_328_399" x1="40.9105" y1="32.8203" x2="40.9105" y2="33.5528" gradientUnits="userSpaceOnUse">
<stop offset="0.130208" stop-color="#006D86"/>
<stop offset="1" stop-color="#006D86" stop-opacity="0"/>
</linearGradient>
<linearGradient id="paint9_linear_328_399" x1="40.9105" y1="34.1387" x2="40.9105" y2="34.8712" gradientUnits="userSpaceOnUse">
<stop offset="0.130208" stop-color="#006D86"/>
<stop offset="1" stop-color="#006D86" stop-opacity="0"/>
</linearGradient>
<linearGradient id="paint10_linear_328_399" x1="12.6521" y1="8.63623" x2="12.6521" y2="16.4008" gradientUnits="userSpaceOnUse">
<stop offset="0.130208" stop-color="#006D86"/>
<stop offset="1" stop-color="#006D86" stop-opacity="0"/>
</linearGradient>
<linearGradient id="paint11_linear_328_399" x1="23.3331" y1="23.7514" x2="15.403" y2="23.7514" gradientUnits="userSpaceOnUse">
<stop stop-color="#ADADAD"/>
<stop offset="1" stop-color="#DADADA"/>
</linearGradient>
<linearGradient id="paint12_linear_328_399" x1="11.8027" y1="34.9083" x2="10.1205" y2="34.9083" gradientUnits="userSpaceOnUse">
<stop offset="0.1474" stop-color="#A8A6A6"/>
<stop offset="1" stop-color="#B5B2B2" stop-opacity="0.53"/>
</linearGradient>
<linearGradient id="paint13_linear_328_399" x1="19.263" y1="18.7563" x2="19.263" y2="19.4888" gradientUnits="userSpaceOnUse">
<stop offset="0.130208" stop-color="#006D86"/>
<stop offset="1" stop-color="#006D86" stop-opacity="0"/>
</linearGradient>
<linearGradient id="paint14_linear_328_399" x1="19.263" y1="20.0747" x2="19.263" y2="20.8072" gradientUnits="userSpaceOnUse">
<stop offset="0.130208" stop-color="#006D86"/>
<stop offset="1" stop-color="#006D86" stop-opacity="0"/>
</linearGradient>
<linearGradient id="paint15_linear_328_399" x1="20.7338" y1="18.7563" x2="20.7338" y2="19.4888" gradientUnits="userSpaceOnUse">
<stop offset="0.130208" stop-color="#006D86"/>
<stop offset="1" stop-color="#006D86" stop-opacity="0"/>
</linearGradient>
<linearGradient id="paint16_linear_328_399" x1="20.7338" y1="20.0747" x2="20.7338" y2="20.8072" gradientUnits="userSpaceOnUse">
<stop offset="0.130208" stop-color="#006D86"/>
<stop offset="1" stop-color="#006D86" stop-opacity="0"/>
</linearGradient>
<linearGradient id="paint17_linear_328_399" x1="19.263" y1="14.438" x2="19.263" y2="15.1704" gradientUnits="userSpaceOnUse">
<stop offset="0.130208" stop-color="#006D86"/>
<stop offset="1" stop-color="#006D86" stop-opacity="0"/>
</linearGradient>
<linearGradient id="paint18_linear_328_399" x1="19.263" y1="15.7563" x2="19.263" y2="16.4888" gradientUnits="userSpaceOnUse">
<stop offset="0.130208" stop-color="#006D86"/>
<stop offset="1" stop-color="#006D86" stop-opacity="0"/>
</linearGradient>
<linearGradient id="paint19_linear_328_399" x1="20.7338" y1="14.438" x2="20.7338" y2="15.1705" gradientUnits="userSpaceOnUse">
<stop offset="0.130208" stop-color="#006D86"/>
<stop offset="1" stop-color="#006D86" stop-opacity="0"/>
</linearGradient>
<linearGradient id="paint20_linear_328_399" x1="20.7338" y1="15.7563" x2="20.7338" y2="16.4888" gradientUnits="userSpaceOnUse">
<stop offset="0.130208" stop-color="#006D86"/>
<stop offset="1" stop-color="#006D86" stop-opacity="0"/>
</linearGradient>
<linearGradient id="paint21_linear_328_399" x1="19.263" y1="22.8584" x2="19.263" y2="23.591" gradientUnits="userSpaceOnUse">
<stop offset="0.130208" stop-color="#006D86"/>
<stop offset="1" stop-color="#006D86" stop-opacity="0"/>
</linearGradient>
<linearGradient id="paint22_linear_328_399" x1="19.263" y1="24.1768" x2="19.263" y2="24.9092" gradientUnits="userSpaceOnUse">
<stop offset="0.130208" stop-color="#006D86"/>
<stop offset="1" stop-color="#006D86" stop-opacity="0"/>
</linearGradient>
<linearGradient id="paint23_linear_328_399" x1="20.7338" y1="22.8584" x2="20.7338" y2="23.5909" gradientUnits="userSpaceOnUse">
<stop offset="0.130208" stop-color="#006D86"/>
<stop offset="1" stop-color="#006D86" stop-opacity="0"/>
</linearGradient>
<linearGradient id="paint24_linear_328_399" x1="20.7338" y1="24.1768" x2="20.7338" y2="24.9093" gradientUnits="userSpaceOnUse">
<stop offset="0.130208" stop-color="#006D86"/>
<stop offset="1" stop-color="#006D86" stop-opacity="0"/>
</linearGradient>
<linearGradient id="paint25_linear_328_399" x1="19.263" y1="26.9604" x2="19.263" y2="27.693" gradientUnits="userSpaceOnUse">
<stop offset="0.130208" stop-color="#006D86"/>
<stop offset="1" stop-color="#006D86" stop-opacity="0"/>
</linearGradient>
<linearGradient id="paint26_linear_328_399" x1="19.263" y1="28.2788" x2="19.263" y2="29.0113" gradientUnits="userSpaceOnUse">
<stop offset="0.130208" stop-color="#006D86"/>
<stop offset="1" stop-color="#006D86" stop-opacity="0"/>
</linearGradient>
<linearGradient id="paint27_linear_328_399" x1="20.7338" y1="26.9604" x2="20.7338" y2="27.6929" gradientUnits="userSpaceOnUse">
<stop offset="0.130208" stop-color="#006D86"/>
<stop offset="1" stop-color="#006D86" stop-opacity="0"/>
</linearGradient>
<linearGradient id="paint28_linear_328_399" x1="20.7338" y1="28.2788" x2="20.7338" y2="29.0113" gradientUnits="userSpaceOnUse">
<stop offset="0.130208" stop-color="#006D86"/>
<stop offset="1" stop-color="#006D86" stop-opacity="0"/>
</linearGradient>
<linearGradient id="paint29_linear_328_399" x1="19.263" y1="31.062" x2="19.263" y2="31.7946" gradientUnits="userSpaceOnUse">
<stop offset="0.130208" stop-color="#006D86"/>
<stop offset="1" stop-color="#006D86" stop-opacity="0"/>
</linearGradient>
<linearGradient id="paint30_linear_328_399" x1="19.263" y1="32.3809" x2="19.263" y2="33.1133" gradientUnits="userSpaceOnUse">
<stop offset="0.130208" stop-color="#006D86"/>
<stop offset="1" stop-color="#006D86" stop-opacity="0"/>
</linearGradient>
<linearGradient id="paint31_linear_328_399" x1="20.7338" y1="31.062" x2="20.7338" y2="31.7945" gradientUnits="userSpaceOnUse">
<stop offset="0.130208" stop-color="#006D86"/>
<stop offset="1" stop-color="#006D86" stop-opacity="0"/>
</linearGradient>
<linearGradient id="paint32_linear_328_399" x1="20.7338" y1="32.3809" x2="20.7338" y2="33.1134" gradientUnits="userSpaceOnUse">
<stop offset="0.130208" stop-color="#006D86"/>
<stop offset="1" stop-color="#006D86" stop-opacity="0"/>
</linearGradient>
<linearGradient id="paint33_linear_328_399" x1="35.3991" y1="22.627" x2="35.3991" y2="27.3225" gradientUnits="userSpaceOnUse">
<stop offset="0.130208" stop-color="#006D86"/>
<stop offset="1" stop-color="#006D86" stop-opacity="0"/>
</linearGradient>
<linearGradient id="paint34_linear_328_399" x1="19.2864" y1="8.63867" x2="19.2864" y2="12.488" gradientUnits="userSpaceOnUse">
<stop offset="0.130208" stop-color="#006D86"/>
<stop offset="1" stop-color="#006D86" stop-opacity="0"/>
</linearGradient>
<linearGradient id="paint35_linear_328_399" x1="37.5665" y1="27.0928" x2="37.5665" y2="30.9421" gradientUnits="userSpaceOnUse">
<stop offset="0.130208" stop-color="#006D86"/>
<stop offset="1" stop-color="#006D86" stop-opacity="0"/>
</linearGradient>
<radialGradient id="paint36_radial_328_399" cx="0" cy="0" r="1" gradientUnits="userSpaceOnUse" gradientTransform="translate(30.624 9.24193) rotate(90) scale(6.16136 6.17965)">
<stop stop-color="white"/>
<stop offset="1" stop-color="#D6D6D6"/>
</radialGradient>
</defs>
</svg>
