<svg width="53" height="53" viewBox="0 0 53 53" fill="none" xmlns="http://www.w3.org/2000/svg">
<path d="M48.9231 0H4.07692C2.99566 0 1.95867 0.429532 1.1941 1.1941C0.429532 1.95867 0 2.99566 0 4.07692V48.9231C0 50.0043 0.429532 51.0413 1.1941 51.8059C1.95867 52.5705 2.99566 53 4.07692 53H48.9231C50.0043 53 51.0413 52.5705 51.8059 51.8059C52.5705 51.0413 53 50.0043 53 48.9231V4.07692C53 2.99566 52.5705 1.95867 51.8059 1.1941C51.0413 0.429532 50.0043 0 48.9231 0ZM48.9231 48.9231H4.07692V4.07692H48.9231V48.9231ZM18.3462 22.4231V38.7308C18.3462 39.2714 18.1314 39.7899 17.7491 40.1722C17.3668 40.5545 16.8483 40.7692 16.3077 40.7692C15.7671 40.7692 15.2486 40.5545 14.8663 40.1722C14.484 39.7899 14.2692 39.2714 14.2692 38.7308V22.4231C14.2692 21.8824 14.484 21.364 14.8663 20.9817C15.2486 20.5994 15.7671 20.3846 16.3077 20.3846C16.8483 20.3846 17.3668 20.5994 17.7491 20.9817C18.1314 21.364 18.3462 21.8824 18.3462 22.4231ZM40.7692 29.5577V38.7308C40.7692 39.2714 40.5545 39.7899 40.1722 40.1722C39.7899 40.5545 39.2714 40.7692 38.7308 40.7692C38.1901 40.7692 37.6716 40.5545 37.2894 40.1722C36.9071 39.7899 36.6923 39.2714 36.6923 38.7308V29.5577C36.6923 28.2061 36.1554 26.9099 35.1997 25.9542C34.244 24.9985 32.9477 24.4615 31.5962 24.4615C30.2446 24.4615 28.9483 24.9985 27.9926 25.9542C27.0369 26.9099 26.5 28.2061 26.5 29.5577V38.7308C26.5 39.2714 26.2852 39.7899 25.903 40.1722C25.5207 40.5545 25.0022 40.7692 24.4615 40.7692C23.9209 40.7692 23.4024 40.5545 23.0201 40.1722C22.6378 39.7899 22.4231 39.2714 22.4231 38.7308V22.4231C22.4256 21.9238 22.6113 21.4428 22.945 21.0713C23.2786 20.6998 23.737 20.4637 24.2332 20.4078C24.7293 20.3518 25.2288 20.48 25.6368 20.7678C26.0447 21.0557 26.3329 21.4833 26.4465 21.9695C27.8255 21.0341 29.4332 20.4919 31.0971 20.4012C32.761 20.3106 34.4181 20.6749 35.8906 21.455C37.363 22.2351 38.5952 23.4015 39.4547 24.8291C40.3142 26.2566 40.7687 27.8914 40.7692 29.5577ZM19.3654 15.2885C19.3654 15.8932 19.1861 16.4844 18.8501 16.9872C18.5141 17.4901 18.0365 17.882 17.4778 18.1134C16.9191 18.3448 16.3043 18.4054 15.7112 18.2874C15.118 18.1694 14.5732 17.8782 14.1456 17.4506C13.718 17.023 13.4267 16.4781 13.3088 15.885C13.1908 15.2919 13.2513 14.6771 13.4828 14.1183C13.7142 13.5596 14.1061 13.0821 14.6089 12.7461C15.1118 12.4101 15.7029 12.2308 16.3077 12.2308C17.1186 12.2308 17.8964 12.5529 18.4698 13.1263C19.0432 13.6998 19.3654 14.4775 19.3654 15.2885Z" fill="white"/>
</svg>
