<svg width="148" height="168" viewBox="0 0 148 168" fill="none" xmlns="http://www.w3.org/2000/svg">
<path d="M147.37 87.5C147.37 90.2848 146.264 92.9555 144.295 94.9246C142.326 96.8938 139.655 98 136.87 98H116.78C112.552 97.9871 108.399 96.8854 104.721 94.8011C101.043 92.7168 97.9637 89.7202 95.7801 86.1L87.2051 71.862L74.6751 102.403L92.9731 112.812C96.738 114.957 99.8681 118.06 102.045 121.806C104.223 125.552 105.37 129.808 105.37 134.141V157.5C105.37 160.285 104.264 162.955 102.295 164.925C100.326 166.894 97.6549 168 94.8701 168C92.0853 168 89.4146 166.894 87.4455 164.925C85.4764 162.955 84.3701 160.285 84.3701 157.5V134.141C84.3699 133.524 84.2067 132.918 83.8969 132.385C83.5871 131.851 83.1418 131.409 82.6061 131.103L54.0321 114.842C49.0453 111.807 45.3016 107.096 43.4713 101.553C41.6411 96.0095 41.8438 89.9956 44.0431 84.588L52.8701 63H40.5221C39.8719 63.0007 39.2348 63.1824 38.6821 63.5249C38.1294 63.8674 37.6831 64.3571 37.3931 64.939L27.2641 85.197C26.0184 87.6884 23.834 89.583 21.1914 90.4638C18.5488 91.3447 15.6646 91.1397 13.1731 89.894C10.6817 88.6483 8.78713 86.4639 7.90628 83.8213C7.02542 81.1787 7.2304 78.2945 8.47612 75.803L18.6051 55.545C20.6289 51.4658 23.7547 48.0349 27.6283 45.641C31.5019 43.247 35.9685 41.9858 40.5221 42H79.8901C84.1178 42.0129 88.2709 43.1146 91.9491 45.1989C95.6273 47.2832 98.7066 50.2799 100.89 53.9L113.77 75.306C114.082 75.8246 114.524 76.2533 115.052 76.5502C115.579 76.8471 116.175 77.0021 116.78 77H136.87C139.655 77 142.326 78.1063 144.295 80.0754C146.264 82.0445 147.37 84.7152 147.37 87.5ZM42.7691 117.95C41.4886 117.438 40.1198 117.183 38.7407 117.2C37.3617 117.217 35.9994 117.505 34.7319 118.048C33.4643 118.592 32.3162 119.38 31.3531 120.367C30.3901 121.354 29.631 122.521 29.1191 123.802C28.8591 124.451 28.4108 125.007 27.8319 125.399C27.253 125.79 26.5701 126 25.8711 126H10.8701C8.08534 126 5.41463 127.106 3.4455 129.075C1.47636 131.045 0.370117 133.715 0.370117 136.5C0.370117 139.285 1.47636 141.955 3.4455 143.925C5.41463 145.894 8.08534 147 10.8701 147H25.8711C30.7714 147.016 35.5628 145.555 39.6208 142.808C43.6788 140.061 46.8152 136.155 48.6211 131.6C49.1334 130.32 49.3883 128.951 49.3714 127.572C49.3546 126.193 49.0662 124.83 48.5227 123.563C47.9793 122.295 47.1915 121.147 46.2043 120.184C45.217 119.221 44.0498 118.462 42.7691 117.95ZM87.8701 35C91.3313 35 94.7147 33.9736 97.5926 32.0507C100.47 30.1278 102.713 27.3947 104.038 24.197C105.363 20.9993 105.709 17.4806 105.034 14.0859C104.359 10.6913 102.692 7.57306 100.244 5.12564C97.7971 2.67822 94.6789 1.01151 91.2842 0.336266C87.8895 -0.338976 84.3709 0.00758247 81.1732 1.33212C77.9754 2.65665 75.2423 4.89967 73.3194 7.77753C71.3965 10.6554 70.3701 14.0388 70.3701 17.5C70.3701 22.1413 72.2139 26.5925 75.4958 29.8744C78.7776 33.1563 83.2288 35 87.8701 35Z" fill="#E8BF28"/>
</svg>
