<svg width="21" height="21" viewBox="0 0 21 21" fill="none" xmlns="http://www.w3.org/2000/svg">
<path d="M10.1563 0.15625C8.17844 0.15625 6.24504 0.74274 4.60055 1.84155C2.95606 2.94037 1.67434 4.50215 0.917459 6.32941C0.160583 8.15667 -0.0374505 10.1673 0.348402 12.1072C0.734254 14.047 1.68666 15.8288 3.08519 17.2273C4.48371 18.6258 6.26554 19.5782 8.20535 19.9641C10.1452 20.35 12.1558 20.1519 13.9831 19.395C15.8103 18.6382 17.3721 17.3564 18.4709 15.7119C19.5698 14.0675 20.1563 12.1341 20.1563 10.1562C20.1535 7.50494 19.099 4.96303 17.2242 3.08827C15.3495 1.21352 12.8076 0.15905 10.1563 0.15625ZM10.1563 18.6178C8.48272 18.6178 6.84677 18.1215 5.45527 17.1918C4.06378 16.262 2.97925 14.9405 2.33881 13.3943C1.69838 11.8482 1.53081 10.1469 1.8573 8.50548C2.18379 6.86411 2.98968 5.35641 4.17304 4.17304C5.35641 2.98967 6.86411 2.18379 8.50549 1.8573C10.1469 1.53081 11.8482 1.69837 13.3943 2.33881C14.9405 2.97924 16.262 4.06378 17.1918 5.45527C18.1215 6.84676 18.6178 8.48271 18.6178 10.1562C18.6152 12.3996 17.7229 14.5504 16.1367 16.1366C14.5504 17.7229 12.3996 18.6152 10.1563 18.6178ZM13.7774 10.3812C13.8489 10.4527 13.9057 10.5375 13.9444 10.6309C13.9831 10.7243 14.003 10.8244 14.003 10.9255C14.003 11.0266 13.9831 11.1267 13.9444 11.22C13.9057 11.3134 13.8489 11.3983 13.7774 11.4697L10.7005 14.5466C10.629 14.6182 10.5442 14.6749 10.4508 14.7136C10.3574 14.7523 10.2573 14.7722 10.1563 14.7722C10.0552 14.7722 9.95507 14.7523 9.86168 14.7136C9.7683 14.6749 9.68346 14.6182 9.61202 14.5466L6.5351 11.4697C6.39076 11.3254 6.30967 11.1296 6.30967 10.9255C6.30967 10.7214 6.39076 10.5256 6.5351 10.3812C6.67944 10.2369 6.8752 10.1558 7.07933 10.1558C7.28346 10.1558 7.47922 10.2369 7.62356 10.3812L9.38702 12.1457V6.31009C9.38702 6.10608 9.46807 5.91043 9.61232 5.76617C9.75658 5.62191 9.95224 5.54086 10.1563 5.54086C10.3603 5.54086 10.5559 5.62191 10.7002 5.76617C10.8444 5.91043 10.9255 6.10608 10.9255 6.31009V12.1457L12.6889 10.3812C12.7604 10.3097 12.8452 10.253 12.9386 10.2143C13.032 10.1756 13.1321 10.1556 13.2332 10.1556C13.3343 10.1556 13.4344 10.1756 13.5277 10.2143C13.6211 10.253 13.706 10.3097 13.7774 10.3812Z" fill="#47555E"/>
</svg>
