<svg width="48" height="48" viewBox="0 0 48 48" fill="none" xmlns="http://www.w3.org/2000/svg">
<rect x="1.5" y="1.5" width="45" height="45" rx="22.5" fill="#EEFBFF" stroke="#36A1BD" stroke-width="3"/>
<g clip-path="url(#clip0_260_484)">
<path d="M34 30.184V28C34 27.2043 33.6839 26.4412 33.1213 25.8786C32.5587 25.316 31.7957 25 31 25H25V21.9C26.214 21.6521 27.2928 20.9624 28.0272 19.9644C28.7616 18.9664 29.0992 17.7312 28.9747 16.4984C28.8501 15.2656 28.2723 14.123 27.3532 13.292C26.434 12.4611 25.2391 12.001 24 12.001C22.7609 12.001 21.566 12.4611 20.6469 13.292C19.7277 14.123 19.1499 15.2656 19.0253 16.4984C18.9008 17.7312 19.2384 18.9664 19.9728 19.9644C20.7072 20.9624 21.786 21.6521 23 21.9V25H17C16.2044 25 15.4413 25.316 14.8787 25.8786C14.3161 26.4412 14 27.2043 14 28V30.184C13.3328 30.4199 12.7705 30.884 12.4124 31.4944C12.0543 32.1049 11.9235 32.8222 12.0432 33.5197C12.1629 34.2172 12.5253 34.8499 13.0663 35.3061C13.6074 35.7622 14.2923 36.0124 15 36.0124C15.7077 36.0124 16.3926 35.7622 16.9337 35.3061C17.4747 34.8499 17.8371 34.2172 17.9568 33.5197C18.0765 32.8222 17.9457 32.1049 17.5876 31.4944C17.2296 30.884 16.6672 30.4199 16 30.184V28C16 27.7347 16.1054 27.4804 16.2929 27.2929C16.4804 27.1053 16.7348 27 17 27H23V30.184C22.3328 30.4199 21.7705 30.884 21.4124 31.4944C21.0543 32.1049 20.9235 32.8222 21.0432 33.5197C21.1629 34.2172 21.5253 34.8499 22.0663 35.3061C22.6074 35.7622 23.2923 36.0124 24 36.0124C24.7077 36.0124 25.3926 35.7622 25.9337 35.3061C26.4747 34.8499 26.8371 34.2172 26.9568 33.5197C27.0765 32.8222 26.9457 32.1049 26.5876 31.4944C26.2296 30.884 25.6672 30.4199 25 30.184V27H31C31.2652 27 31.5196 27.1053 31.7071 27.2929C31.8946 27.4804 32 27.7347 32 28V30.184C31.3328 30.4199 30.7705 30.884 30.4124 31.4944C30.0543 32.1049 29.9235 32.8222 30.0432 33.5197C30.1629 34.2172 30.5253 34.8499 31.0663 35.3061C31.6074 35.7622 32.2923 36.0124 33 36.0124C33.7077 36.0124 34.3926 35.7622 34.9337 35.3061C35.4747 34.8499 35.8371 34.2172 35.9568 33.5197C36.0765 32.8222 35.9457 32.1049 35.5876 31.4944C35.2296 30.884 34.6672 30.4199 34 30.184Z" fill="#36A1BD"/>
<circle cx="24.0682" cy="16.8815" r="3.66102" fill="#EEFBFF"/>
<circle cx="33.0166" cy="33.0169" r="1.76271" fill="#EEFBFF"/>
<circle cx="24.0674" cy="33.0169" r="1.76271" fill="#EEFBFF"/>
<circle cx="14.8477" cy="33.0169" r="1.76271" fill="#EEFBFF"/>
</g>
<defs>
<clipPath id="clip0_260_484">
<rect width="24" height="24" fill="white" transform="translate(12 12)"/>
</clipPath>
</defs>
</svg>
