<svg width="19" height="19" viewBox="0 0 19 19" fill="none" xmlns="http://www.w3.org/2000/svg">
<path d="M11.2812 7.71875H10.0938V2.96875H10.6875C11.3174 2.96875 11.9215 3.21897 12.3669 3.66437C12.8123 4.10977 13.0625 4.71386 13.0625 5.34375C13.0625 5.50122 13.1251 5.65225 13.2364 5.76359C13.3478 5.87494 13.4988 5.9375 13.6562 5.9375C13.8137 5.9375 13.9647 5.87494 14.0761 5.76359C14.1874 5.65225 14.25 5.50122 14.25 5.34375C14.249 4.39922 13.8734 3.49365 13.2055 2.82577C12.5376 2.15788 11.632 1.78223 10.6875 1.78125H10.0938V0.59375C10.0938 0.436278 10.0312 0.285255 9.91985 0.173905C9.8085 0.0625556 9.65747 0 9.5 0C9.34253 0 9.1915 0.0625556 9.08016 0.173905C8.96881 0.285255 8.90625 0.436278 8.90625 0.59375V1.78125H8.3125C7.36767 1.78125 6.46153 2.15658 5.79343 2.82468C5.12533 3.49278 4.75 4.39892 4.75 5.34375C4.75 6.28858 5.12533 7.19472 5.79343 7.86282C6.46153 8.53092 7.36767 8.90625 8.3125 8.90625H8.90625V13.6562H7.71875C7.08886 13.6562 6.48477 13.406 6.03937 12.9606C5.59397 12.5152 5.34375 11.9111 5.34375 11.2812C5.34375 11.1238 5.28119 10.9728 5.16984 10.8614C5.05849 10.7501 4.90747 10.6875 4.75 10.6875C4.59253 10.6875 4.44151 10.7501 4.33016 10.8614C4.21881 10.9728 4.15625 11.1238 4.15625 11.2812C4.15723 12.2258 4.53288 13.1313 5.20077 13.7992C5.86865 14.4671 6.77422 14.8428 7.71875 14.8438H8.90625V16.0312C8.90625 16.1887 8.96881 16.3397 9.08016 16.4511C9.1915 16.5624 9.34253 16.625 9.5 16.625C9.65747 16.625 9.8085 16.5624 9.91985 16.4511C10.0312 16.3397 10.0938 16.1887 10.0938 16.0312V14.8438H11.2812C12.2261 14.8438 13.1322 14.4684 13.8003 13.8003C14.4684 13.1322 14.8438 12.2261 14.8438 11.2812C14.8438 10.3364 14.4684 9.43028 13.8003 8.76218C13.1322 8.09408 12.2261 7.71875 11.2812 7.71875ZM8.3125 7.71875C7.68261 7.71875 7.07852 7.46853 6.63312 7.02313C6.18772 6.57773 5.9375 5.97364 5.9375 5.34375C5.9375 4.71386 6.18772 4.10977 6.63312 3.66437C7.07852 3.21897 7.68261 2.96875 8.3125 2.96875H8.90625V7.71875H8.3125ZM11.2812 13.6562H10.0938V8.90625H11.2812C11.9111 8.90625 12.5152 9.15647 12.9606 9.60187C13.406 10.0473 13.6562 10.6514 13.6562 11.2812C13.6562 11.9111 13.406 12.5152 12.9606 12.9606C12.5152 13.406 11.9111 13.6562 11.2812 13.6562Z" fill="#47555E"/>
</svg>
