<svg width="19" height="21" viewBox="0 0 19 21" fill="none" xmlns="http://www.w3.org/2000/svg">
<path d="M9.5 0.0708008C7.62108 0.0708008 5.78435 0.663309 4.22209 1.7734C2.65982 2.88349 1.44218 4.4613 0.723149 6.30731C0.0041162 8.15332 -0.184015 10.1846 0.182544 12.1443C0.549104 14.104 1.45389 15.9042 2.78249 17.317C4.11109 18.7299 5.80383 19.6921 7.64665 20.0819C9.48946 20.4717 11.3996 20.2716 13.1355 19.507C14.8714 18.7424 16.3551 17.4475 17.399 15.7861C18.4428 14.1248 19 12.1715 19 10.1734C18.9973 7.4949 17.9956 4.9269 16.2146 3.03291C14.4336 1.13892 12.0187 0.0736293 9.5 0.0708008ZM9.5 18.7218C7.91015 18.7218 6.35599 18.2204 5.03407 17.2811C3.71216 16.3418 2.68185 15.0067 2.07343 13.4447C1.46502 11.8827 1.30583 10.1639 1.616 8.50571C1.92616 6.84749 2.69175 5.32432 3.81595 4.12881C4.94015 2.9333 6.37247 2.11914 7.93178 1.7893C9.49109 1.45946 11.1074 1.62875 12.5762 2.27575C14.045 2.92276 15.3005 4.01842 16.1837 5.42419C17.067 6.82997 17.5385 8.4827 17.5385 10.1734C17.536 12.4398 16.6884 14.6126 15.1814 16.2152C13.6744 17.8177 11.6312 18.7192 9.5 18.7218ZM12.9401 8.84647C13.008 8.91867 13.0619 9.00439 13.0986 9.09873C13.1353 9.19307 13.1543 9.29418 13.1543 9.39629C13.1543 9.4984 13.1353 9.59951 13.0986 9.69384C13.0619 9.78818 13.008 9.8739 12.9401 9.9461C12.8722 10.0183 12.7916 10.0756 12.7029 10.1147C12.6142 10.1537 12.5191 10.1738 12.4231 10.1738C12.3271 10.1738 12.232 10.1537 12.1433 10.1147C12.0546 10.0756 11.974 10.0183 11.9061 9.9461L10.2308 8.16357V14.059C10.2308 14.2651 10.1538 14.4628 10.0167 14.6085C9.87969 14.7543 9.69381 14.8362 9.5 14.8362C9.30619 14.8362 9.12032 14.7543 8.98327 14.6085C8.84622 14.4628 8.76923 14.2651 8.76923 14.059V8.16357L7.09395 9.9461C6.95682 10.0919 6.77085 10.1738 6.57693 10.1738C6.38301 10.1738 6.19703 10.0919 6.05991 9.9461C5.92278 9.80028 5.84575 9.60251 5.84575 9.39629C5.84575 9.19007 5.92278 8.99229 6.05991 8.84647L8.98298 5.73798C9.05085 5.66572 9.13145 5.6084 9.22016 5.56929C9.30888 5.53019 9.40397 5.51006 9.5 5.51006C9.59604 5.51006 9.69113 5.53019 9.77984 5.56929C9.86856 5.6084 9.94915 5.66572 10.017 5.73798L12.9401 8.84647Z" fill="#47555E"/>
</svg>
