<svg width="65" height="65" viewBox="0 0 65 65" fill="none" xmlns="http://www.w3.org/2000/svg">
<path d="M32.5 6.09375C27.2773 6.09375 22.172 7.64245 17.8295 10.544C13.487 13.4456 10.1024 17.5697 8.10382 22.3948C6.10519 27.2199 5.58226 32.5293 6.60115 37.6516C7.62004 42.7739 10.135 47.4791 13.828 51.172C17.521 54.865 22.2261 57.38 27.3484 58.3989C32.4707 59.4178 37.7801 58.8948 42.6052 56.8962C47.4304 54.8976 51.5545 51.513 54.456 47.1705C57.3576 42.828 58.9063 37.7227 58.9063 32.5C58.8989 25.4989 56.1144 18.7867 51.1639 13.8361C46.2134 8.8856 39.5011 6.10114 32.5 6.09375ZM34.5313 54.7498V38.5938H40.625C41.1637 38.5938 41.6804 38.3797 42.0613 37.9988C42.4423 37.6179 42.6563 37.1012 42.6563 36.5625C42.6563 36.0238 42.4423 35.5071 42.0613 35.1262C41.6804 34.7453 41.1637 34.5312 40.625 34.5312H34.5313V28.4375C34.5313 27.3601 34.9593 26.3267 35.7211 25.5649C36.483 24.803 37.5163 24.375 38.5938 24.375H42.6563C43.195 24.375 43.7116 24.161 44.0926 23.7801C44.4735 23.3991 44.6875 22.8825 44.6875 22.3438C44.6875 21.805 44.4735 21.2884 44.0926 20.9074C43.7116 20.5265 43.195 20.3125 42.6563 20.3125H38.5938C36.4389 20.3125 34.3723 21.1685 32.8485 22.6923C31.3248 24.216 30.4688 26.2826 30.4688 28.4375V34.5312H24.375C23.8363 34.5312 23.3196 34.7453 22.9387 35.1262C22.5578 35.5071 22.3438 36.0238 22.3438 36.5625C22.3438 37.1012 22.5578 37.6179 22.9387 37.9988C23.3196 38.3797 23.8363 38.5938 24.375 38.5938H30.4688V54.7498C24.7427 54.2271 19.4385 51.517 15.6595 47.1833C11.8806 42.8496 9.91777 37.2259 10.1794 31.4819C10.441 25.7379 12.907 20.3159 17.0642 16.3437C21.2215 12.3715 26.7501 10.1548 32.5 10.1548C38.2499 10.1548 43.7785 12.3715 47.9358 16.3437C52.0931 20.3159 54.559 25.7379 54.8206 31.4819C55.0823 37.2259 53.1195 42.8496 49.3405 47.1833C45.5616 51.517 40.2574 54.2271 34.5313 54.7498Z" fill="white"/>
</svg>
