<svg width="24" height="27" viewBox="0 0 24 27" fill="none" xmlns="http://www.w3.org/2000/svg">
<path d="M16 12.5357H13.3333V4.82143H14.6667C16.0812 4.82143 17.4377 5.2278 18.4379 5.95116C19.4381 6.67451 20 7.65559 20 8.67857C20 8.93432 20.1405 9.17959 20.3905 9.36042C20.6406 9.54126 20.9797 9.64286 21.3333 9.64286C21.687 9.64286 22.0261 9.54126 22.2761 9.36042C22.5262 9.17959 22.6667 8.93432 22.6667 8.67857C22.6645 7.14459 21.8209 5.6739 20.3211 4.58922C18.8213 3.50453 16.7877 2.89445 14.6667 2.89286H13.3333V0.964286C13.3333 0.708541 13.1929 0.463271 12.9428 0.282433C12.6928 0.101594 12.3536 0 12 0C11.6464 0 11.3072 0.101594 11.0572 0.282433C10.8071 0.463271 10.6667 0.708541 10.6667 0.964286V2.89286H9.33333C7.2116 2.89286 5.17677 3.50242 3.67648 4.58745C2.17619 5.67249 1.33333 7.1441 1.33333 8.67857C1.33333 10.213 2.17619 11.6847 3.67648 12.7697C5.17677 13.8547 7.2116 14.4643 9.33333 14.4643H10.6667V22.1786H8C6.58551 22.1786 5.22896 21.7722 4.22876 21.0488C3.22857 20.3255 2.66667 19.3444 2.66667 18.3214C2.66667 18.0657 2.52619 17.8204 2.27614 17.6396C2.02609 17.4587 1.68696 17.3571 1.33333 17.3571C0.979711 17.3571 0.640573 17.4587 0.390525 17.6396C0.140476 17.8204 0 18.0657 0 18.3214C0.00220599 19.8554 0.845769 21.3261 2.34558 22.4108C3.8454 23.4955 5.87895 24.1055 8 24.1071H10.6667V26.0357C10.6667 26.2915 10.8071 26.5367 11.0572 26.7176C11.3072 26.8984 11.6464 27 12 27C12.3536 27 12.6928 26.8984 12.9428 26.7176C13.1929 26.5367 13.3333 26.2915 13.3333 26.0357V24.1071H16C18.1217 24.1071 20.1566 23.4976 21.6569 22.4125C23.1571 21.3275 24 19.8559 24 18.3214C24 16.787 23.1571 15.3153 21.6569 14.2303C20.1566 13.1453 18.1217 12.5357 16 12.5357ZM9.33333 12.5357C7.91885 12.5357 6.56229 12.1293 5.5621 11.406C4.5619 10.6826 4 9.70155 4 8.67857C4 7.65559 4.5619 6.67451 5.5621 5.95116C6.56229 5.2278 7.91885 4.82143 9.33333 4.82143H10.6667V12.5357H9.33333ZM16 22.1786H13.3333V14.4643H16C17.4145 14.4643 18.771 14.8707 19.7712 15.594C20.7714 16.3174 21.3333 17.2985 21.3333 18.3214C21.3333 19.3444 20.7714 20.3255 19.7712 21.0488C18.771 21.7722 17.4145 22.1786 16 22.1786Z" fill="#006D86"/>
</svg>
