<svg width="48" height="48" viewBox="0 0 48 48" fill="none" xmlns="http://www.w3.org/2000/svg">
<rect x="1.5" y="1.5" width="45" height="45" rx="22.5" fill="#FFF9F6" stroke="#F58F5C" stroke-width="3"/>
<g clip-path="url(#clip0_260_487)">
<path d="M33.9997 16H19.708C19.1557 16 18.708 16.4477 18.708 17C18.708 17.5523 19.1557 18 19.708 18H33.9997C34.552 18 34.9997 17.5523 34.9997 17C34.9997 16.4477 34.552 16 33.9997 16Z" fill="#F58F5C"/>
<path d="M33.9997 23H19.708C19.1557 23 18.708 23.4477 18.708 24C18.708 24.5523 19.1557 25 19.708 25H33.9997C34.552 25 34.9997 24.5523 34.9997 24C34.9997 23.4477 34.552 23 33.9997 23Z" fill="#F58F5C"/>
<path d="M33.9997 30H19.708C19.1557 30 18.708 30.4477 18.708 31C18.708 31.5523 19.1557 32 19.708 32H33.9997C34.552 32 34.9997 31.5523 34.9997 31C34.9997 30.4477 34.552 30 33.9997 30Z" fill="#F58F5C"/>
<path d="M13.9167 19C14.9752 19 15.8333 18.1046 15.8333 17C15.8333 15.8954 14.9752 15 13.9167 15C12.8581 15 12 15.8954 12 17C12 18.1046 12.8581 19 13.9167 19Z" fill="#F58F5C"/>
<path d="M13.9167 26C14.9752 26 15.8333 25.1046 15.8333 24C15.8333 22.8954 14.9752 22 13.9167 22C12.8581 22 12 22.8954 12 24C12 25.1046 12.8581 26 13.9167 26Z" fill="#F58F5C"/>
<path d="M13.9167 33C14.9752 33 15.8333 32.1046 15.8333 31C15.8333 29.8954 14.9752 29 13.9167 29C12.8581 29 12 29.8954 12 31C12 32.1046 12.8581 33 13.9167 33Z" fill="#F58F5C"/>
</g>
<defs>
<clipPath id="clip0_260_487">
<rect width="23" height="24" fill="white" transform="translate(12 12)"/>
</clipPath>
</defs>
</svg>
