<svg width="16" height="16" viewBox="0 0 16 16" fill="none" xmlns="http://www.w3.org/2000/svg">
<path d="M6.82459 1.82102H3.66267C2.73065 1.82102 2.26463 1.82102 1.90865 2.00058C1.59551 2.15852 1.34093 2.41054 1.18139 2.72051C1 3.0729 1 3.53421 1 4.45682V12.3642C1 13.2868 1 13.7482 1.18139 14.1005C1.34093 14.4105 1.59551 14.6625 1.90865 14.8204C2.26463 15 2.73065 15 3.66267 15H11.6507C12.5827 15 13.0487 15 13.4047 14.8204C13.7178 14.6625 13.9724 14.4105 14.1319 14.1005C14.3133 13.7482 14.3133 13.2868 14.3133 12.3642V8.82235M10.569 3.05655L12.9224 5.38629M6.62713 6.9586L12.1591 1.48251C12.8089 0.839165 13.8627 0.839165 14.5125 1.48251C15.1625 2.12585 15.1625 3.1689 14.5125 3.81224L8.80278 9.46434C8.16907 10.0917 7.85221 10.4054 7.49125 10.6548C7.1709 10.8763 6.82534 11.0597 6.4618 11.2013C6.05216 11.361 5.61289 11.4487 4.73433 11.6242L4.32834 11.7053L4.36782 11.4316C4.50753 10.4635 4.57739 9.97947 4.7363 9.52751C4.8773 9.12646 5.06993 8.74517 5.30941 8.39288C5.5793 7.99587 5.92859 7.65008 6.62713 6.9586Z" stroke="#47555E" stroke-width="2" stroke-linecap="round" stroke-linejoin="round"/>
</svg>
