<svg width="28" height="34" viewBox="0 0 28 34" fill="none" xmlns="http://www.w3.org/2000/svg">
<path d="M20.3636 21.3089C20.3636 21.6331 20.2295 21.944 19.9909 22.1732C19.7522 22.4024 19.4285 22.5312 19.0909 22.5312H8.90909C8.57154 22.5312 8.24782 22.4024 8.00914 22.1732C7.77045 21.944 7.63636 21.6331 7.63636 21.3089C7.63636 20.9848 7.77045 20.6739 8.00914 20.4447C8.24782 20.2155 8.57154 20.0867 8.90909 20.0867H19.0909C19.4285 20.0867 19.7522 20.2155 19.9909 20.4447C20.2295 20.6739 20.3636 20.9848 20.3636 21.3089ZM19.0909 15.1978H8.90909C8.57154 15.1978 8.24782 15.3266 8.00914 15.5558C7.77045 15.785 7.63636 16.0959 7.63636 16.42C7.63636 16.7442 7.77045 17.0551 8.00914 17.2843C8.24782 17.5135 8.57154 17.6423 8.90909 17.6423H19.0909C19.4285 17.6423 19.7522 17.5135 19.9909 17.2843C20.2295 17.0551 20.3636 16.7442 20.3636 16.42C20.3636 16.0959 20.2295 15.785 19.9909 15.5558C19.7522 15.3266 19.4285 15.1978 19.0909 15.1978ZM28 5.41995V31.0868C28 31.7351 27.7318 32.3569 27.2545 32.8153C26.7771 33.2737 26.1296 33.5312 25.4545 33.5312H2.54545C1.87036 33.5312 1.22291 33.2737 0.745546 32.8153C0.268181 32.3569 0 31.7351 0 31.0868V5.41995C0 4.77164 0.268181 4.14988 0.745546 3.69146C1.22291 3.23303 1.87036 2.97549 2.54545 2.97549H8.31409C9.02921 2.20659 9.90537 1.5914 10.8852 1.17019C11.865 0.748982 12.9265 0.53125 14 0.53125C15.0735 0.53125 16.135 0.748982 17.1148 1.17019C18.0946 1.5914 18.9708 2.20659 19.6859 2.97549H25.4545C26.1296 2.97549 26.7771 3.23303 27.2545 3.69146C27.7318 4.14988 28 4.77164 28 5.41995ZM8.90909 7.86441H19.0909C19.0909 6.56779 18.5545 5.32427 17.5998 4.40742C16.6451 3.49057 15.3502 2.97549 14 2.97549C12.6498 2.97549 11.3549 3.49057 10.4002 4.40742C9.44545 5.32427 8.90909 6.56779 8.90909 7.86441ZM25.4545 5.41995H21.1989C21.4884 6.20495 21.6363 7.03163 21.6364 7.86441V9.08664C21.6364 9.4108 21.5023 9.72168 21.2636 9.95089C21.0249 10.1801 20.7012 10.3089 20.3636 10.3089H7.63636C7.29882 10.3089 6.97509 10.1801 6.73641 9.95089C6.49773 9.72168 6.36364 9.4108 6.36364 9.08664V7.86441C6.36367 7.03163 6.51162 6.20495 6.80114 5.41995H2.54545V31.0868H25.4545V5.41995Z" fill="#006D86"/>
</svg>
